<?xml version="1.0" encoding="utf-8"?>
<!-- Generator: Adobe Illustrator 16.0.0, SVG Export Plug-In . SVG Version: 6.00 Build 0)  -->
<!DOCTYPE svg PUBLIC "-//W3C//DTD SVG 1.1//EN" "http://www.w3.org/Graphics/SVG/1.1/DTD/svg11.dtd">
<svg version="1.1" id="Layer_1" xmlns="http://www.w3.org/2000/svg" xmlns:xlink="http://www.w3.org/1999/xlink" x="0px" y="0px"
	 width="120.838px" height="96.493px" viewBox="0 0 120.838 96.493" enable-background="new 0 0 120.838 96.493"
	 xml:space="preserve">
<g>
	<g>
		<path fill="#FFFFFF" d="M63.182,18.75c1.294,0,2.345-1.05,2.345-2.344s-1.051-2.344-2.345-2.344c-1.293,0-2.343,1.05-2.343,2.344
			S61.889,18.75,63.182,18.75z"/>
		<path fill="#FFFFFF" d="M105.021,20.773c6.268-7.357,10.816-13.992,12.062-17.656c0.239-0.703,0.132-1.477-0.29-2.086
			c-0.421-0.61-1.106-0.985-1.848-1.012c-9.04-0.313-17.736,3.105-24.124,9.429C83.48,6.493,72.215,4.688,60.839,4.688
			c-11.375,0-22.642,1.805-29.984,4.76C24.467,3.125,15.767-0.291,6.731,0.02C5.99,0.046,5.305,0.421,4.883,1.031
			C4.462,1.641,4.355,2.414,4.592,3.115c1.221,3.596,5.489,9.879,11.569,17.076C6.646,26.711,0.838,37.589,0.838,49.219
			c0,19.386,15.771,35.156,35.157,35.156c2.795,0,5.917-0.324,8.448-0.864l11.445,10.946c1.368,1.358,3.16,2.036,4.952,2.036
			c1.791,0,3.583-0.678,4.95-2.036l11.922-11.402c2.955,0.834,6.533,1.32,9.842,1.32c18.354,0,33.285-15.412,33.285-34.356
			C120.838,37.856,114.682,26.929,105.021,20.773z M28.558,13.82c0.689,0.756,1.788,0.979,2.715,0.549
			c6.564-3.033,18.169-4.994,29.566-4.994c11.397,0,23.003,1.961,29.563,4.996c0.928,0.428,2.027,0.207,2.717-0.549
			c4.697-5.152,11.086-8.326,17.932-9c-8.029,13.591-33.728,40.625-50.212,45.006c-16.55-4.398-42.336-31.7-50.209-45.006
			C17.473,5.498,23.861,8.67,28.558,13.82z M60.83,69.807c-2.433-1.804-6.373-5.379-7.444-9.233
			c-0.188-0.675-0.282-1.341-0.282-1.979c0-2.211,0.388-4.355,1.108-6.215c2.14,0.973,4.177,1.691,6.083,2.146
			c0.179,0.042,0.361,0.063,0.544,0.063c0.182,0,0.365-0.021,0.542-0.063c1.906-0.454,3.944-1.173,6.083-2.146
			c0.721,1.859,1.107,4.004,1.107,6.215c0,0.639-0.095,1.305-0.283,1.979C67.146,64.693,62.945,68.238,60.83,69.807z M29.599,34.432
			c2.662,2.523,5.831,5.357,9.269,8.101c-0.684-0.224-1.413-0.345-2.17-0.345c-3.878,0-7.032,3.154-7.032,7.031
			s3.154,7.031,7.032,7.031c3.877,0,7.031-3.154,7.031-7.031c0-1.423-0.426-2.747-1.156-3.855c2.424,1.77,4.932,3.432,7.456,4.867
			c-1.046,2.509-1.613,5.407-1.613,8.363c0,0.634,0.056,1.275,0.164,1.922c-3.098,3.258-7.368,5.109-11.882,5.109
			c-9.046,0-16.406-7.359-16.406-16.406C20.291,42.921,23.98,37.145,29.599,34.432z M39.042,49.219c0,1.293-1.051,2.344-2.344,2.344
			c-1.293,0-2.344-1.051-2.344-2.344s1.051-2.344,2.344-2.344C37.99,46.875,39.042,47.926,39.042,49.219z M71.647,50.23
			c2.524-1.436,5.032-3.098,7.456-4.867c-0.73,1.108-1.156,2.433-1.156,3.855c0,3.877,3.154,7.031,7.031,7.031
			s7.031-3.154,7.031-7.031s-3.154-7.031-7.031-7.031c-0.758,0-1.486,0.121-2.171,0.345c3.439-2.743,6.608-5.577,9.27-8.101
			c5.619,2.713,9.308,8.489,9.308,14.787c0,9.047-7.359,16.406-16.406,16.406c-4.514,0-8.784-1.852-11.882-5.109
			c0.108-0.646,0.163-1.288,0.163-1.922C73.26,55.637,72.693,52.739,71.647,50.23z M82.635,49.219c0-1.293,1.053-2.344,2.344-2.344
			c1.293,0,2.344,1.051,2.344,2.344s-1.051,2.344-2.344,2.344C83.688,51.563,82.635,50.511,82.635,49.219z M87.553,79.688
			c-1.881,0-3.897-0.187-5.779-0.518l0.139-0.131c0.935-0.896,0.969-2.379,0.073-3.314c-0.895-0.936-2.379-0.969-3.313-0.074
			L62.533,91.087c-0.014,0.013-0.025,0.024-0.038,0.036c-0.913,0.914-2.4,0.914-3.314,0c-0.013-0.013-0.024-0.023-0.037-0.036
			L43.004,75.65c-0.935-0.895-2.418-0.861-3.314,0.074c-0.894,0.936-0.861,2.418,0.074,3.313l0.428,0.41
			c-1.391,0.154-2.835,0.24-4.198,0.24c-16.801,0-30.469-13.668-30.469-30.469c0-10.262,5.217-19.85,13.731-25.463
			c2.213,2.48,4.499,4.903,6.829,7.242c-6.38,3.742-10.481,10.691-10.481,18.221c0,11.631,9.463,21.094,21.094,21.094
			c5.048,0,9.859-1.797,13.646-5.02c3.114,5.465,8.957,9.167,9.252,9.352C59.976,74.881,60.407,75,60.839,75
			c0.431,0,0.861-0.119,1.241-0.355c0.295-0.185,6.139-3.887,9.253-9.352c3.786,3.223,8.599,5.02,13.646,5.02
			c11.631,0,21.094-9.463,21.094-21.094c0-7.529-4.1-14.479-10.48-18.219c2.145-2.154,4.252-4.38,6.301-6.655
			c8.838,5.304,14.258,14.977,14.258,25.673C116.15,66.378,103.322,79.688,87.553,79.688z"/>
		<path fill="#FFFFFF" d="M72.204,19.506c5.675,0.781,10.619,2.012,13.563,3.373c1.181,0.545,2.571,0.025,3.111-1.145
			c0.544-1.174,0.031-2.566-1.144-3.11c-4.584-2.118-11.297-3.267-14.891-3.761c-1.279-0.176-2.465,0.719-2.641,2.001
			C70.025,18.146,70.922,19.329,72.204,19.506z"/>
	</g>
</g>
</svg>
