<?xml version="1.0" encoding="utf-8"?>
<!-- Generator: Adobe Illustrator 16.0.0, SVG Export Plug-In . SVG Version: 6.00 Build 0)  -->
<!DOCTYPE svg PUBLIC "-//W3C//DTD SVG 1.1//EN" "http://www.w3.org/Graphics/SVG/1.1/DTD/svg11.dtd">
<svg version="1.1" id="Layer_1" xmlns="http://www.w3.org/2000/svg" xmlns:xlink="http://www.w3.org/1999/xlink" x="0px" y="0px"
	 width="64px" height="64px" viewBox="-1.188 -1.25 64 64" enable-background="new -1.188 -1.25 64 64" xml:space="preserve">
<path fill="#F1E6FD" d="M50.734,62.653H10.795c-6.618,0-11.982-5.364-11.982-11.982V10.732c0-6.618,5.364-11.982,11.982-11.982
	h39.939c6.616,0,11.981,5.364,11.981,11.982v39.938C62.715,57.289,57.351,62.653,50.734,62.653z"/>
<path fill="#6E21EB" d="M45.511,14.563c0.003-0.134-0.019-0.264-0.069-0.387c-0.012-0.027-0.015-0.056-0.027-0.082
	c-0.063-0.12-0.142-0.233-0.252-0.324c-0.016-0.014-0.035-0.018-0.055-0.029c-0.008-0.007-0.014-0.02-0.022-0.026
	c-0.021-0.015-0.047-0.011-0.067-0.021c-0.116-0.066-0.237-0.107-0.367-0.122c-0.035-0.004-0.07-0.015-0.105-0.015
	c-0.153-0.002-0.305,0.027-0.448,0.096c-0.009,0.004-0.019,0.002-0.027,0.006L14.117,29.3c-0.349,0.182-0.557,0.55-0.536,0.94
	c0.021,0.391,0.271,0.734,0.637,0.875l9.801,3.792l1.894,9.881c0.005,0.027,0.02,0.049,0.027,0.074
	c0.012,0.043,0.027,0.082,0.045,0.124c0.034,0.078,0.076,0.148,0.126,0.215c0.017,0.02,0.021,0.045,0.038,0.063
	c0.011,0.011,0.022,0.015,0.032,0.025c0.09,0.09,0.19,0.171,0.31,0.223c0.006,0.002,0.011,0.002,0.018,0.004
	c0.093,0.038,0.188,0.066,0.29,0.076c0.032,0.002,0.065,0.004,0.095,0.004c0.113,0,0.222-0.023,0.326-0.059
	c0.029-0.011,0.055-0.029,0.086-0.043c0.076-0.034,0.145-0.075,0.21-0.131c0.015-0.012,0.031-0.016,0.044-0.027l7.201-6.466
	l7.103,2.565c0.109,0.04,0.227,0.061,0.34,0.061c0.188,0,0.375-0.055,0.538-0.155c0.261-0.166,0.429-0.445,0.457-0.752l2.33-25.961
	C45.527,14.609,45.511,14.586,45.511,14.563L45.511,14.563z M27.226,41.043l-1.252-6.532l12.268-12.268l-8.85,13.381
	c-0.037,0.059-0.069,0.12-0.095,0.185L27.226,41.043z"/>
</svg>
