<?xml version="1.0" encoding="utf-8"?>
<!-- Generator: Adobe Illustrator 16.0.0, SVG Export Plug-In . SVG Version: 6.00 Build 0)  -->
<!DOCTYPE svg PUBLIC "-//W3C//DTD SVG 1.1//EN" "http://www.w3.org/Graphics/SVG/1.1/DTD/svg11.dtd">
<svg version="1.1" id="Layer_1" xmlns="http://www.w3.org/2000/svg" xmlns:xlink="http://www.w3.org/1999/xlink" x="0px" y="0px"
	 width="435.52px" height="406.833px" viewBox="0 0 435.52 406.833" enable-background="new 0 0 435.52 406.833"
	 xml:space="preserve">
<g id="BACKGROUND" display="none">
	<rect x="-29.375" y="-50.578" display="inline" fill="#F9F9F9" width="500" height="500"/>
</g>
<g id="OBJECTS">
	<g opacity="0.2">
		<path fill="#E9E7FF" d="M113.776,353.12c-1.965,6.541-3.184,13.48-1.975,20.203c1.21,6.723,5.18,13.215,11.365,16.115
			c9.523,4.466,20.745-0.563,29.29-6.695c8.545-6.134,16.876-13.746,27.317-15.017c13.487-1.642,26.021,7.853,39.6,8.317
			c16.813,0.578,32.298-15.334,31.266-32.125c-0.895-14.539-12.591-26.865-26.291-31.811c-13.703-4.943-28.943-3.605-43.032,0.094
			C155.405,319.002,122.447,324.258,113.776,353.12z"/>
		<path fill="#E9E7FF" d="M399.115,253.272c-4.58,21.801-18.681,41.42-37.88,52.71c-19.2,11.29-43.2,14.08-64.47,7.49
			c-24.621-7.63-45.5-27.011-71.211-28.921c-40.18-3-72.13,37.291-112.3,40.381c-27.54,2.13-55.01-16.46-64.5-42.17
			c-1.05-2.83-1.88-5.75-2.47-8.74c-5.91-30.09,13.54-63.07,42.74-72.45c11.73-3.77,25.36-4.57,33.86-13.47
			c10.97-11.48,7.71-29.89,4.48-45.43c-3.57-17.18-6.21-34.75-4.84-52.25c2.43-30.94,19.25-59.94,50.64-68.35
			c16.78-4.5,29.84,0.69,41.76,12.65c7.979,8,15.5,22.17,27.021,25.54c18.42,5.37,31.439-19.81,43.869-28.79
			c19.25-13.92,45.7-19.29,68.051-9.91c15.42,6.48,27.39,20.52,32.319,36.34c3.33,10.65,3.471,22.11-0.67,32.59
			c-6.489,16.43-21.221,27.91-32.029,41.87c-10.82,13.96-17.421,34.89-6.32,48.63c8.83,10.93,24.931,12.43,36.32,20.66
			C398.915,212.782,403.025,234.652,399.115,253.272z"/>
		<path fill="#E9E7FF" d="M366.811,161.264c5.715,6.686,17.321,3.083,24.575,8.057c2.891,1.981,4.759,5.128,7.384,7.451
			c9.243,8.18,23.641,2.548,26.959-8.532c3.288-10.979-3.087-28.373-11.258-36.134C397.19,115.69,350.596,142.292,366.811,161.264z"
			/>
		<path fill="#E9E7FF" d="M35.667,123.731c4.61,8.271,13.08,14.404,15.586,23.536c1.758,6.407,0.254,13.32,1.684,19.809
			c2.905,13.179,18.89,21.211,31.667,16.867c12.776-4.345,20.554-19.096,18.287-32.399c-1.44-8.451-6.288-16.291-6.141-24.863
			c0.234-13.648,14.671-27.532,7.812-41.191C98.64,73.7,79.932,72.843,68.361,72.759C44.111,72.582,22.844,100.729,35.667,123.731z"
			/>
		
			<linearGradient id="SVGID_1_" gradientUnits="userSpaceOnUse" x1="-10.5034" y1="368.9185" x2="242.6504" y2="131.2303" gradientTransform="matrix(1 0 0 -1 194 511.833)">
			<stop  offset="8.244300e-004" style="stop-color:#FFFFFF"/>
			<stop  offset="1" style="stop-color:#000000;stop-opacity:0"/>
		</linearGradient>
		<path fill="url(#SVGID_1_)" d="M399.115,253.272c-4.58,21.801-18.681,41.42-37.88,52.71c-19.2,11.29-43.2,14.08-64.47,7.49
			c-24.621-7.63-45.5-27.011-71.211-28.921c-40.18-3-72.13,37.291-112.3,40.381c-27.54,2.13-55.01-16.46-64.5-42.17
			c9.63-13.19,23.21-23.75,39.03-27.53c33.69-8.04,69.58,15.29,102.74,5.29c28.331-8.55,44.43-38.561,51.67-67.25
			c7.25-28.69,8.97-59.3,22.709-85.51c14.351-27.38,41.751-47.55,72.161-53.11c16.31-2.98,33.319-1.73,49.119,3.25
			c3.33,10.65,3.471,22.11-0.67,32.59c-6.489,16.43-21.221,27.91-32.029,41.87c-10.82,13.96-17.421,34.89-6.32,48.63
			c8.83,10.93,24.931,12.43,36.32,20.66C398.915,212.782,403.025,234.652,399.115,253.272z"/>
		<g>
			<g>
				
					<circle fill="none" stroke="#9577EB" stroke-width="4" stroke-linecap="round" stroke-linejoin="round" stroke-miterlimit="10" cx="81.953" cy="94.588" r="9.285"/>
				
					<circle fill="none" stroke="#9577EB" stroke-width="4" stroke-linecap="round" stroke-linejoin="round" stroke-miterlimit="10" cx="353.412" cy="270.407" r="9.285"/>
				
					<circle fill="none" stroke="#9577EB" stroke-width="4" stroke-linecap="round" stroke-linejoin="round" stroke-miterlimit="10" cx="196.72" cy="258.002" r="5.826"/>
				
					<circle fill="none" stroke="#9577EB" stroke-width="4" stroke-linecap="round" stroke-linejoin="round" stroke-miterlimit="10" cx="331.403" cy="42.334" r="5.826"/>
			</g>
			<g>
				
					<linearGradient id="SVGID_2_" gradientUnits="userSpaceOnUse" x1="-102.8311" y1="329.9653" x2="-93.4092" y2="329.9653" gradientTransform="matrix(1 0 0 -1 194 511.833)">
					<stop  offset="0" style="stop-color:#FF7D90"/>
					<stop  offset="1" style="stop-color:#E55161"/>
				</linearGradient>
				<circle fill="url(#SVGID_2_)" cx="95.88" cy="181.868" r="4.711"/>
				
					<linearGradient id="SVGID_3_" gradientUnits="userSpaceOnUse" x1="22.4199" y1="257.438" x2="42.1016" y2="257.438" gradientTransform="matrix(1 0 0 -1 194 511.833)">
					<stop  offset="0" style="stop-color:#FF7D90"/>
					<stop  offset="1" style="stop-color:#E55161"/>
				</linearGradient>
				<circle fill="url(#SVGID_3_)" cx="226.261" cy="254.395" r="9.841"/>
				
					<linearGradient id="SVGID_4_" gradientUnits="userSpaceOnUse" x1="93.5498" y1="434.9331" x2="113.2324" y2="434.9331" gradientTransform="matrix(1 0 0 -1 194 511.833)">
					<stop  offset="0" style="stop-color:#FF7D90"/>
					<stop  offset="1" style="stop-color:#E55161"/>
				</linearGradient>
				<circle fill="url(#SVGID_4_)" cx="297.391" cy="76.9" r="9.841"/>
				<g>
					<circle fill="#FFBB00" cx="249.084" cy="37.949" r="4.711"/>
					<circle fill="#FFBB00" cx="201.73" cy="297.002" r="4.711"/>
					
						<linearGradient id="SVGID_5_" gradientUnits="userSpaceOnUse" x1="-126.626" y1="276.8979" x2="-106.9438" y2="276.8979" gradientTransform="matrix(1 0 0 -1 194 511.833)">
						<stop  offset="0" style="stop-color:#FFD261"/>
						<stop  offset="1" style="stop-color:#FFBB00"/>
					</linearGradient>
					<circle fill="url(#SVGID_5_)" cx="77.215" cy="234.935" r="9.841"/>
					
						<linearGradient id="SVGID_6_" gradientUnits="userSpaceOnUse" x1="173.3154" y1="280.5796" x2="192.9971" y2="280.5796" gradientTransform="matrix(1 0 0 -1 194 511.833)">
						<stop  offset="0" style="stop-color:#FFD261"/>
						<stop  offset="1" style="stop-color:#FFBB00"/>
					</linearGradient>
					<circle fill="url(#SVGID_6_)" cx="377.156" cy="231.253" r="9.841"/>
				</g>
				
					<linearGradient id="SVGID_7_" gradientUnits="userSpaceOnUse" x1="197.9355" y1="318.8228" x2="207.3584" y2="318.8228" gradientTransform="matrix(1 0 0 -1 194 511.833)">
					<stop  offset="0" style="stop-color:#FF7D90"/>
					<stop  offset="1" style="stop-color:#E55161"/>
				</linearGradient>
				<circle fill="url(#SVGID_7_)" cx="396.646" cy="193.01" r="4.711"/>
			</g>
		</g>
	</g>
	<g>
		<g>
			<polygon fill="#E5740E" points="169.528,353.801 183.007,336.547 177.693,325.62 192.842,325.056 194.544,339.945 			"/>
			<path fill="#FFAA36" d="M183.007,336.547l-13.479,17.254c0,0-8.939-3.01-4.291-8.898l10.056-15.671l2.399-3.612L183.007,336.547z
				"/>
		</g>
		<g>
			<polygon fill="#E5740E" points="221.568,397.87 229.2,377.348 220.83,368.538 235.1,363.418 241.223,377.096 			"/>
			<path fill="#FFAA36" d="M229.2,377.348l-7.632,20.521c0,0-9.43-0.166-6.78-7.187l4.847-17.979l1.195-4.168L229.2,377.348z"/>
		</g>
		<path fill="#BAB1FF" d="M359.539,83.992c-0.477-0.598-0.986-1.201-1.2-1.935c-0.215-0.733-0.04-1.645,0.615-2.04
			c0.597,0.914,1.229,1.862,2.178,2.402c0.948,0.54,2.312,0.524,2.984-0.334c0.423-0.537,0.489-1.276,0.405-1.954
			c-0.199-1.602-1.134-3.212-0.604-4.737c0.44-1.268,1.855-2.03,3.195-1.974c1.341,0.056,2.578,0.8,3.506,1.769
			c2.548,2.657,2.934,6.688,2.822,10.368c-0.112,3.68-0.56,7.504,0.795,10.928c0.165,0.417-4.906,1.715-5.506,1.691
			c-1.594-0.062-2.358-0.505-3.201-1.84c-1.068-1.691-1.309-4.213-2.155-6.072C362.355,88.029,361.067,85.916,359.539,83.992z"/>
		<path fill="#BAB1FF" d="M223.755,224.515c-0.18,0.743-0.342,1.517-0.788,2.137c-0.447,0.62-1.273,1.043-1.986,0.771
			c0.354-1.033,0.711-2.114,0.555-3.194c-0.157-1.081-1.008-2.146-2.1-2.149c-0.683-0.002-1.308,0.398-1.79,0.883
			c-1.141,1.143-1.837,2.869-3.366,3.388c-1.271,0.433-2.741-0.216-3.521-1.308c-0.78-1.092-0.953-2.524-0.76-3.853
			c0.53-3.644,3.472-6.426,6.442-8.601c2.97-2.174,6.262-4.174,8.13-7.346c0.228-0.387,4.368,2.815,4.719,3.303
			c0.931,1.295,1.051,2.17,0.517,3.656c-0.678,1.883-2.519,3.621-3.464,5.434C225.208,219.812,224.333,222.127,223.755,224.515z"/>
		<polygon fill="#9696ED" points="315.922,131.254 306.293,169.924 290.7,165.772 305.656,132.995 		"/>
		
			<linearGradient id="SVGID_8_" gradientUnits="userSpaceOnUse" x1="-102.1748" y1="158.7827" x2="11.4131" y2="233.3677" gradientTransform="matrix(0.9563 -0.2924 -0.2924 -0.9563 347.7162 462.9059)">
			<stop  offset="0" style="stop-color:#2D3E7A"/>
			<stop  offset="0.706" style="stop-color:#1B255C"/>
			<stop  offset="1" style="stop-color:#131A4E"/>
		</linearGradient>
		<path fill="url(#SVGID_8_)" d="M310.046,236.347l-13.325,14.997l-1.438,1.599c-0.42,0.464-0.826,0.94-1.234,1.417
			c-0.807,0.961-1.583,1.952-2.333,2.969c-1.485,2.041-2.87,4.18-4.088,6.428c-1.233,2.24-2.312,4.582-3.25,6.994l-3.376,9.396
			l-1.693,4.722l-1.008,2.786c-0.38,1.08-0.814,2.138-1.277,3.183c-1.824,4.188-4.127,8.137-6.83,11.746
			c-5.395,7.236-12.461,13.056-20.336,16.975c-0.982,0.492-1.972,0.969-2.987,1.382l-1.515,0.64l-1.186,0.443l-4.699,1.754
			l-9.398,3.508l-37.591,14.027l-7.771-16.954l35.167-19.321l8.792-4.83l4.396-2.414l1.088-0.601l0.73-0.467
			c0.495-0.292,0.964-0.628,1.428-0.964c3.715-2.674,6.721-6.145,8.707-10.027c1-1.938,1.758-3.963,2.27-6.021
			c0.135-0.512,0.256-1.025,0.337-1.551l0.399-2.013l0.992-4.916l2.002-9.88c0.881-4.003,2.017-7.969,3.428-11.852
			c1.396-3.891,3.078-7.689,4.985-11.391c0.964-1.846,1.981-3.666,3.063-5.455c0.545-0.891,1.097-1.779,1.669-2.654l1.579-2.394
			l11.015-16.769L310.046,236.347z"/>
		
			<linearGradient id="SVGID_9_" gradientUnits="userSpaceOnUse" x1="28.54" y1="255.6479" x2="-50.8357" y2="109.2137" gradientTransform="matrix(0.9563 -0.2924 -0.2924 -0.9563 347.7162 462.9059)">
			<stop  offset="0" style="stop-color:#222E66"/>
			<stop  offset="1" style="stop-color:#131A4E"/>
		</linearGradient>
		<path fill="url(#SVGID_9_)" d="M324.355,212.135l3.439,62.668l0.15,2.738c0.021,0.403,0,0.836-0.051,1.224
			c-1.815,13.213-6.735,25.804-14.212,36.407c-3.704,5.322-8.049,10.138-12.847,14.359l-0.891,0.789l-0.739,0.614l-1.481,1.228
			l-2.963,2.457l-5.925,4.912l-47.397,39.295l-14.147-14.66l40.957-45.971l5.119-5.746l2.562-2.873l1.278-1.438l0.64-0.719
			l0.463-0.572c2.459-2.989,4.543-6.225,6.168-9.641c2.494-5.119,3.899-12.428,4.441-15.729c0.184-1.115,0.158-2.255-0.066-3.363
			L276.73,218.23L324.355,212.135z"/>
		<circle fill="#BAB1FF" cx="310.047" cy="128.872" r="18.711"/>
		
			<linearGradient id="SVGID_10_" gradientUnits="userSpaceOnUse" x1="193.7656" y1="409.1255" x2="39.6339" y2="259.6363" gradientTransform="matrix(1 0 0 -1 194 511.833)">
			<stop  offset="0" style="stop-color:#FFD261"/>
			<stop  offset="1" style="stop-color:#FFBB00"/>
		</linearGradient>
		<path fill="url(#SVGID_10_)" d="M362.675,94.235l5.534,58.896l-106.734-2.465l-0.688-0.018c-3.359-0.068-6.672,1.566-8.608,4.607
			l-33.648,52.848l11.645,8.501l36.158-43.439l15.818,0.366l-18.242,52.917l69.939,7.891l-6.438-59.762l52.846,1.22l0.602,0.016
			c0.74,0.012,1.493-0.052,2.25-0.2c5.822-1.137,9.621-6.779,8.482-12.602l-13.856-70.948L362.675,94.235z"/>
		
			<linearGradient id="SVGID_11_" gradientUnits="userSpaceOnUse" x1="116.2969" y1="267.437" x2="67.5888" y2="292.4868" gradientTransform="matrix(0.9563 -0.2924 -0.2924 -0.9563 347.7162 462.9059)">
			<stop  offset="0" style="stop-color:#FFD261;stop-opacity:0"/>
			<stop  offset="1" style="stop-color:#F18D1B"/>
		</linearGradient>
		<polygon fill="url(#SVGID_11_)" points="327.549,174.167 323.257,152.196 380.255,175.796 		"/>
		
			<linearGradient id="SVGID_12_" gradientUnits="userSpaceOnUse" x1="-11.3506" y1="298.4712" x2="28.4713" y2="306.3697" gradientTransform="matrix(0.9563 -0.2924 -0.2924 -0.9563 347.7162 462.9059)">
			<stop  offset="0" style="stop-color:#FFD261;stop-opacity:0"/>
			<stop  offset="1" style="stop-color:#F18D1B"/>
		</linearGradient>
		<polygon fill="url(#SVGID_12_)" points="282.779,173.557 286.414,157.304 261.262,163.961 255.172,186.815 266.331,173.166 		"/>
		<path fill="#0F1D4E" d="M322.112,99.514c1.431,0.473,2.034,2.349,1.491,3.754c-0.541,1.405-1.923,2.337-3.357,2.792
			c-1.438,0.456-2.961,0.521-4.454,0.725c-0.111,0.016-0.222,0.04-0.333,0.057c-3.068-0.57-6.226-0.642-9.3-0.097
			c-4.316,0.765-8.415,2.686-11.8,5.467c-4.438,3.648-8.821,9.486-5.825,14.56c-3.159,1.694-0.31,8.103,1.788,11.68
			c2.758,4.704,6.229,9.901,11.63,10.659c4.507,0.632,8.92-2.269,11.426-6.068s3.491-8.372,4.428-12.825
			c0.241-1.146,0.441-2.472-0.306-3.373c-0.143-0.173-0.304-0.31-0.478-0.42c1.055-0.908,2.101-1.78,3.194-2.198
			c2.757-1.053,5.791-1.5,8.248-3.134c3.963-2.636,5.516-8.153,4.001-12.667C330.954,103.912,326.755,100.561,322.112,99.514z"/>
		<circle fill="#BAB1FF" cx="317.974" cy="132.751" r="3.502"/>
		
			<linearGradient id="SVGID_13_" gradientUnits="userSpaceOnUse" x1="134.2319" y1="361.2231" x2="110.093" y2="286.8752" gradientTransform="matrix(0.9563 -0.2924 -0.2924 -0.9563 347.7162 462.9059)">
			<stop  offset="8.244300e-004" style="stop-color:#FFFFFF"/>
			<stop  offset="1" style="stop-color:#FFBB00;stop-opacity:0"/>
		</linearGradient>
		<polygon fill="url(#SVGID_13_)" points="368.209,153.131 377.732,92.063 362.675,94.235 		"/>
		
			<linearGradient id="SVGID_14_" gradientUnits="userSpaceOnUse" x1="49.8926" y1="324.7505" x2="18.9731" y2="229.5184" gradientTransform="matrix(0.9563 -0.2924 -0.2924 -0.9563 347.7162 462.9059)">
			<stop  offset="8.244300e-004" style="stop-color:#FFFFFF"/>
			<stop  offset="1" style="stop-color:#FFBB00;stop-opacity:0"/>
		</linearGradient>
		<polygon fill="url(#SVGID_14_)" points="333.847,234.338 316.28,155.604 294.566,156.004 263.907,226.45 		"/>
	</g>
	<g>
		<path fill="#9577EB" d="M132.802,17.855c0.507-0.572,1.048-1.147,1.301-1.869c0.253-0.722,0.127-1.641-0.506-2.069
			c-0.645,0.881-1.326,1.793-2.302,2.283c-0.976,0.489-2.335,0.4-2.963-0.492c-0.393-0.559-0.421-1.3-0.301-1.973
			c0.284-1.589,1.302-3.148,0.854-4.699c-0.374-1.289-1.746-2.125-3.087-2.14c-1.342-0.015-2.616,0.663-3.595,1.581
			c-2.685,2.519-3.284,6.523-3.367,10.204c-0.083,3.68,0.16,7.523-1.374,10.87c-0.187,0.408,4.808,1.973,5.408,1.981
			c1.594,0.023,2.382-0.38,3.294-1.668c1.156-1.632,1.529-4.138,2.474-5.949C129.775,21.737,131.173,19.695,132.802,17.855z"/>
		<path fill="#9577EB" d="M215.492,172.091c-0.406,0.647-0.847,1.304-0.978,2.057c-0.132,0.753,0.143,1.64,0.837,1.958
			c0.492-0.974,1.015-1.986,1.898-2.628c0.882-0.643,2.237-0.777,3.003,0c0.479,0.487,0.628,1.214,0.62,1.897
			c-0.021,1.615-0.771,3.319-0.074,4.775c0.579,1.21,2.069,1.811,3.396,1.607s2.473-1.082,3.287-2.147
			c2.237-2.924,2.174-6.973,1.653-10.617c-0.519-3.645-1.387-7.396-0.422-10.949c0.117-0.433-5.065-1.16-5.659-1.07
			c-1.576,0.238-2.287,0.764-2.978,2.185c-0.874,1.799-0.832,4.332-1.468,6.273C217.844,167.767,216.798,170.01,215.492,172.091z"/>
		<polygon fill="#9577EB" points="185.426,60.034 178.579,99.292 194.519,101.807 194.11,65.782 		"/>
		
			<linearGradient id="SVGID_15_" gradientUnits="userSpaceOnUse" x1="-333.2305" y1="668.5249" x2="-261.0001" y2="740.1272" gradientTransform="matrix(-0.7532 -0.6578 0.6578 -0.7532 -536.8514 580.6458)">
			<stop  offset="0" style="stop-color:#545E89"/>
			<stop  offset="1" style="stop-color:#1A2242"/>
		</linearGradient>
		<path fill="url(#SVGID_15_)" d="M141.614,194.889c0.062-0.139,0.146-0.233,0.204-0.364c0.113-0.262,0.257-0.459,0.336-0.726
			c0.426-0.917,0.694-1.744,0.964-2.497c0.304-0.738,0.474-1.46,0.775-2.164c0.089-0.366,0.284-0.726,0.395-1.129l0.064-0.15
			c0.01-0.049,0.026,0.003,0.033-0.13l0.024-0.333l0.118-1.332c0.073-0.888,0.181-1.776,0.274-2.664
			c0.423-3.552,1.001-7.105,1.826-10.66c0.846-3.555,1.833-7.11,3.411-10.669l34.169-0.202c1.62,3.54,2.648,7.084,3.536,10.628
			c0.867,3.545,1.487,7.091,1.952,10.638c0.104,0.887,0.223,1.773,0.306,2.66l0.134,1.331l0.028,0.333
			c0.01,0.089,0.013,0.363,0.019,0.536l0.025,1.18c0.091,3.151-0.245,6.317-0.796,9.438c-1.227,6.217-3.641,12.231-7.204,17.458
			c-3.524,5.248-8.122,9.743-13.389,13.074c-1.146,0.752-2.353,1.4-3.555,2.04c-0.66,0.351-1.759,0.88-2.446,1.173l-1.198,0.514
			l-0.529,0.221l-0.339,0.109c-1.715,0.549-3.466,1.025-5.213,1.512c-7.006,1.906-14.187,3.477-21.112,5.539l0,0
			c-1.039,0.537-1.39,1.853-0.757,2.836l1.71,2.658c1.941,2.983,3.896,5.957,5.884,8.904c3.97,5.9,8.023,11.738,12.203,17.479
			c4.185,5.736,8.458,11.406,13.021,16.854l-16.439,12.54c-4.048-5.842-8.386-11.462-12.813-17.016
			c-4.432-5.549-8.99-11-13.631-16.389c-2.317-2.697-4.668-5.369-7.033-8.029l-3.568-3.975l-0.896-0.992l-0.224-0.248l-0.112-0.123
			l-0.193-0.246l-0.769-1.014c-0.514-0.677-0.995-1.38-1.417-2.135c-0.43-0.747-0.882-1.482-1.223-2.283
			c-1.49-3.138-2.363-6.617-2.501-10.134c-0.139-3.519,0.409-7.065,1.598-10.452c1.191-3.383,3.046-6.619,5.521-9.404
			c1.212-1.42,2.604-2.682,4.078-3.84c0.75-0.551,1.518-1.088,2.296-1.619l1.069-0.84c5.689-4.457,11.123-9.406,16.73-14.019
			c1.407-1.144,2.81-2.295,4.248-3.377c0.082-0.065,0.197-0.145,0.251-0.198l0.051-0.104L141.614,194.889z"/>
		
			<linearGradient id="SVGID_16_" gradientUnits="userSpaceOnUse" x1="-258.7832" y1="778.7339" x2="-157.1405" y2="693.6711" gradientTransform="matrix(-0.7532 -0.6578 0.6578 -0.7532 -536.8514 580.6458)">
			<stop  offset="0" style="stop-color:#343A5E"/>
			<stop  offset="1" style="stop-color:#1A2242"/>
		</linearGradient>
		<path fill="url(#SVGID_16_)" d="M63.302,125.94c0.534-0.504,1.059-1.022,1.619-1.5l1.742-1.361
			c9.424-7.185,22.34-9.543,34.143-5.972c1.487,0.404,2.916,0.971,4.334,1.589c1.445,0.567,2.774,1.343,4.13,2.093
			c1.384,0.719,2.596,1.653,3.87,2.536l2.574,1.875c2.932,2.138,5.856,4.284,8.822,6.383l17.726,12.67
			c0.474,0.34,0.943,0.685,1.417,1.024c0.663-3.309,1.362-6.614,2.313-9.892l42.216,4.434c0.312,4.261,0.23,8.48,0.175,12.702
			c-0.104,4.217-0.333,8.42-0.663,12.614c-0.314,4.195-0.737,8.378-1.231,12.554c-0.504,4.175-1.052,8.345-1.718,12.503l-0.342,2.15
			c-0.689,4.336-2.648,8.516-5.895,11.946c-8.563,9.043-22.834,9.434-31.878,0.871c-10.507-9.949-20.622-20.346-30.595-30.903
			l-14.942-15.858c-2.479-2.655-4.999-5.265-7.513-7.881l-0.942-0.981l-0.471-0.491l-0.142-0.164c-0.18-0.187-0.291-0.51-0.5-0.66
			c-0.191-0.182-0.354-0.439-0.585-0.567c-0.207-0.177-0.413-0.38-0.662-0.496c-0.929-0.606-2.11-1.059-3.401-1.136
			c-1.289-0.074-2.616,0.209-3.835,0.766c-0.15,0.074-0.307,0.142-0.47,0.205c-0.149,0.081-0.277,0.191-0.427,0.277l-0.453,0.264
			c-0.126,0.119-0.262,0.229-0.4,0.341c-0.306,0.192-0.535,0.478-0.792,0.745l-0.204,0.195c-0.039,0.04-0.061,0.046-0.115,0.113
			l-0.2,0.275l-0.798,1.098l-6.379,8.791l-12.615,17.673c-4.151,5.925-8.325,11.836-12.385,17.82l-18.85-12.066
			c3.734-6.192,7.355-12.458,10.998-18.708l10.769-18.855l5.313-9.473l0.664-1.185L56.888,134l0.278-0.438l0.589-0.904
			c0.787-1.208,1.598-2.404,2.566-3.5l1.419-1.668C62.24,126.956,62.775,126.452,63.302,125.94z"/>
		
			<linearGradient id="SVGID_17_" gradientUnits="userSpaceOnUse" x1="-129.8418" y1="803.9155" x2="-284.9246" y2="838.2258" gradientTransform="matrix(-0.7532 -0.6578 0.6578 -0.7532 -536.8514 580.6458)">
			<stop  offset="0" style="stop-color:#FF7D90"/>
			<stop  offset="1" style="stop-color:#E55161"/>
		</linearGradient>
		<path fill="url(#SVGID_17_)" d="M127.18,29.715l-4.202,33.578l115.879,32.439l1.026,0.287l0.386,0.118
			c5.332,1.746,8.238,7.483,6.492,12.815l-17.303,52.842l-11.404-2.552l5.542-44.541l-25.273-7.075l-1.601,51.572l-56.018-19.524
			l15.431-43.858l-48.399-13.549l-1.229-0.343c-0.279-0.079-0.558-0.171-0.834-0.276c-5.147-1.954-7.735-7.71-5.781-12.857
			l15.91-41.905L127.18,29.715z"/>
		<circle fill="#9577EB" cx="192.448" cy="56.15" r="18.71"/>
		
			<linearGradient id="SVGID_18_" gradientUnits="userSpaceOnUse" x1="-170.8613" y1="806.1362" x2="-201.5808" y2="830.309" gradientTransform="matrix(-0.7532 -0.6578 0.6578 -0.7532 -536.8514 580.6458)">
			<stop  offset="0" style="stop-color:#FF7D90;stop-opacity:0"/>
			<stop  offset="1" style="stop-color:#C42C42"/>
		</linearGradient>
		<polygon fill="url(#SVGID_18_)" points="156.083,95.795 163.125,79.759 123.893,86.826 		"/>
		
			<linearGradient id="SVGID_19_" gradientUnits="userSpaceOnUse" x1="-275.4893" y1="799.2183" x2="-237.6225" y2="839.6357" gradientTransform="matrix(-0.7532 -0.6578 0.6578 -0.7532 -536.8514 580.6458)">
			<stop  offset="0" style="stop-color:#FF7D90;stop-opacity:0"/>
			<stop  offset="1" style="stop-color:#C42C42"/>
		</linearGradient>
		<polygon fill="url(#SVGID_19_)" points="198.325,107.627 190.687,105.364 196.724,159.199 		"/>
		<path fill="#0F1D4E" d="M198.104,63.069c-0.576,3.079-2.955,5.474-4.248,8.327s-0.798,7.156,2.244,7.903
			c4.229,1.038,6.486-5.691,10.774-6.448c5.352,9.5,11.3,18.865,19.44,26.119c8.143,7.254,18.797,12.253,29.683,11.609
			c8.192-0.484,16.67-4.792,19.787-12.384c2.129-5.186,1.493-11.175-0.513-16.409c-5.513-14.374-21.881-23.689-37.054-21.084
			c-8.903,1.528-17.114,6.62-26.146,6.75c4.248-7.34,3.408-17.289-2.008-23.814c-3.169-3.817-7.79-6.313-12.656-7.156
			c-5.899-1.021-6.735-0.204-7.993,4.928C187.353,49.825,188.802,59.459,198.104,63.069z"/>
		<circle fill="#9577EB" cx="196.749" cy="66.245" r="3.502"/>
		
			<linearGradient id="SVGID_20_" gradientUnits="userSpaceOnUse" x1="-199.8457" y1="843.1382" x2="-233.1669" y2="784.0487" gradientTransform="matrix(-0.7532 -0.6578 0.6578 -0.7532 -536.8514 580.6458)">
			<stop  offset="8.244300e-004" style="stop-color:#FFFFFF"/>
			<stop  offset="1" style="stop-color:#FF7D90;stop-opacity:0"/>
		</linearGradient>
		<polygon fill="url(#SVGID_20_)" points="156.137,95.817 167.93,149.2 140.707,139.675 		"/>
		<path fill="#7C40D6" d="M183.28,72.438c0.284,0.248,8.786,1.739,8.786,1.739l-10.099,5.675L183.28,72.438z"/>
		<path fill="#B62A43" d="M45.612,193.024l-10.458,20.891L6.457,196.267l14.688-0.596c4.432-0.18,8.392-2.818,10.266-6.838
			l1.712-3.707L45.612,193.024z"/>
		<path fill="#B62A43" d="M164.604,290.301l15.879,17.136l-26.61,20.66l4.606-13.959c1.39-4.212,0.313-8.849-2.792-12.015
			l-2.868-2.906L164.604,290.301z"/>
	</g>
	<g opacity="0.2">
		
			<linearGradient id="SVGID_21_" gradientUnits="userSpaceOnUse" x1="-69.4648" y1="422.9722" x2="184.5352" y2="422.9722" gradientTransform="matrix(1 0 0 -1 194 511.833)">
			<stop  offset="0" style="stop-color:#FFFFFF"/>
			<stop  offset="1" style="stop-color:#000000"/>
		</linearGradient>
		
			<path fill="none" stroke="url(#SVGID_21_)" stroke-width="4" stroke-linecap="round" stroke-linejoin="round" stroke-miterlimit="10" d="
			M126.535,138.572c38.39-13.71,73.58-36.05,109.38-56.03c42.649-23.79,89.21-45.06,138.011-43.29c0.869,0.03,1.739,0.07,2.609,0.12
			"/>
		
			<linearGradient id="SVGID_22_" gradientUnits="userSpaceOnUse" x1="72.875" y1="233.3257" x2="206.415" y2="233.3257" gradientTransform="matrix(1 0 0 -1 194 511.833)">
			<stop  offset="0" style="stop-color:#FFFFFF"/>
			<stop  offset="1" style="stop-color:#000000"/>
		</linearGradient>
		
			<path fill="none" stroke="url(#SVGID_22_)" stroke-width="4" stroke-linecap="round" stroke-linejoin="round" stroke-miterlimit="10" d="
			M268.875,300.762c26.75-16.32,54.42-30.4,84.71-38.15c14.66-3.76,29.71-5.859,44.83-6.359"/>
		
			<linearGradient id="SVGID_23_" gradientUnits="userSpaceOnUse" x1="-143.6851" y1="280.731" x2="150.415" y2="280.731" gradientTransform="matrix(1 0 0 -1 194 511.833)">
			<stop  offset="0" style="stop-color:#FFFFFF"/>
			<stop  offset="1" style="stop-color:#000000"/>
		</linearGradient>
		
			<path fill="none" stroke="url(#SVGID_23_)" stroke-width="4" stroke-linecap="round" stroke-linejoin="round" stroke-miterlimit="10" d="
			M52.315,290.602c32.13-45.98,86.68-75.2,141.59-90.88c48.47-13.84,98.84-19.37,148.51-28.12"/>
	</g>
</g>
<g id="DESIGNED_BY_FREEPIK">
</g>
</svg>
