<?xml version="1.0" encoding="utf-8"?>
<!-- Generator: Adobe Illustrator 16.0.0, SVG Export Plug-In . SVG Version: 6.00 Build 0)  -->
<!DOCTYPE svg PUBLIC "-//W3C//DTD SVG 1.1//EN" "http://www.w3.org/Graphics/SVG/1.1/DTD/svg11.dtd">
<svg version="1.1" id="Layer_1" xmlns="http://www.w3.org/2000/svg" xmlns:xlink="http://www.w3.org/1999/xlink" x="0px" y="0px"
	 width="40px" height="40px" viewBox="12 12 40 40" enable-background="new 12 12 40 40" xml:space="preserve">
<path fill="#E6EEFF" d="M49.682,38.894l-1.357-2.332h-4.419l-1.499,2.332l-1.469,2.938c-0.56,1.119-0.466,2.448,0.232,3.497
	l3.708,5.675l0.187,0.279c0.467,0.676,1.492,0.676,1.959,0l0.187-0.279l3.707-5.675c0.7-1.049,0.793-2.378,0.233-3.497
	L49.682,38.894z"/>
<path fill="#C4CAD9" d="M49.682,38.894l-1.357-2.332h-2.281v15.229c0.373,0,0.746-0.17,0.979-0.508l0.187-0.279l3.707-5.675
	c0.699-1.049,0.793-2.378,0.233-3.497L49.682,38.894z"/>
<path fill="#E6EEFF" d="M29.955,12.001H13.167c-0.653,0-1.166,0.513-1.166,1.165v37.462c0,0.653,0.513,1.167,1.166,1.167h23.549
	c0.653,0,1.167-0.514,1.167-1.167V19.773L29.955,12.001z"/>
<path fill="#DAE2F2" d="M24.902,12.001v39.794h11.813c0.653,0,1.167-0.514,1.167-1.167V19.773L29.955,12h-5.053V12.001z"/>
<path fill="#979CA7" d="M37.883,19.773v1.633h-8.161c-0.653,0-1.167-0.513-1.167-1.166v-8.239h1.4c0.909,0,1.749,0.35,2.402,0.956
	l4.429,4.221C37.487,17.83,37.883,18.817,37.883,19.773z"/>
<path fill="#29CCB1" d="M32.053,44.723h-4.818c-0.644,0-1.167-0.521-1.167-1.166c0-0.644,0.522-1.165,1.167-1.165h4.818
	c0.646,0,1.167,0.521,1.167,1.165C33.22,44.201,32.698,44.723,32.053,44.723z"/>
<path fill="#7F838C" d="M24.902,21.406H17.83c-0.644,0-1.165-0.521-1.165-1.166c0-0.644,0.521-1.166,1.165-1.166h7.073
	c0.645,0,1.166,0.522,1.166,1.166C26.068,20.885,25.547,21.406,24.902,21.406z"/>
<path fill="#757982" d="M26.068,20.239c0-0.644-0.521-1.165-1.166-1.165v2.331C25.547,21.406,26.068,20.884,26.068,20.239z"/>
<path fill="#7F838C" d="M24.902,26.069H17.83c-0.644,0-1.165-0.522-1.165-1.166s0.521-1.166,1.165-1.166h7.073
	c0.645,0,1.166,0.522,1.166,1.166C26.068,25.547,25.547,26.069,24.902,26.069z"/>
<path fill="#757982" d="M26.068,24.903c0-0.644-0.521-1.166-1.166-1.166v2.332C25.547,26.069,26.068,25.547,26.068,24.903z"/>
<path fill="#7F838C" d="M32.053,30.732H17.83c-0.644,0-1.165-0.521-1.165-1.166c0-0.644,0.521-1.166,1.165-1.166h14.224
	c0.646,0,1.167,0.521,1.167,1.166C33.22,30.211,32.698,30.732,32.053,30.732z"/>
<path fill="#757982" d="M32.053,28.4h-7.151v2.332h7.151c0.646,0,1.167-0.521,1.167-1.166S32.698,28.4,32.053,28.4z"/>
<path fill="#7F838C" d="M32.053,35.396H17.83c-0.644,0-1.165-0.522-1.165-1.166c0-0.645,0.521-1.166,1.165-1.166h14.224
	c0.646,0,1.167,0.521,1.167,1.166C33.22,34.874,32.698,35.396,32.053,35.396z"/>
<path fill="#757982" d="M32.053,33.064h-7.151v2.332h7.151c0.646,0,1.167-0.522,1.167-1.166
	C33.22,33.586,32.698,33.064,32.053,33.064z"/>
<path fill="#7F838C" d="M32.053,40.06H17.83c-0.644,0-1.165-0.521-1.165-1.166s0.521-1.166,1.165-1.166h14.224
	c0.646,0,1.167,0.521,1.167,1.166S32.698,40.06,32.053,40.06z"/>
<path fill="#757982" d="M32.053,37.728h-7.151v2.332h7.151c0.646,0,1.167-0.521,1.167-1.166S32.698,37.728,32.053,37.728z"/>
<path fill="#A1A7B3" d="M47.21,43.557v7.446l-0.187,0.279c-0.467,0.676-1.493,0.676-1.959,0l-0.187-0.279v-7.446
	c0-0.653,0.513-1.165,1.165-1.165C46.696,42.392,47.21,42.903,47.21,43.557z"/>
<path fill="#979CA7" d="M47.023,51.282l0.187-0.279v-7.446c0-0.653-0.514-1.165-1.167-1.165v9.399
	C46.417,51.791,46.789,51.62,47.023,51.282z"/>
<path fill="#4DB5FF" d="M42.407,38.894h7.272l1.764-3.527c0.301-0.606,0.422-1.279,0.347-1.95l-1.679-15.119l-0.347-3.185
	c-0.197-1.773-1.69-3.111-3.477-3.111h-0.49c-1.784,0-3.277,1.337-3.476,3.111l-2.025,18.303c-0.074,0.672,0.045,1.345,0.348,1.952
	L42.407,38.894z"/>
<path fill="#4D97FF" d="M49.765,15.113c-0.197-1.773-1.69-3.111-3.477-3.111h-0.245v26.892h3.637l1.764-3.526
	c0.301-0.607,0.422-1.28,0.347-1.951l-1.679-15.119L49.765,15.113z"/>
</svg>
