<?xml version="1.0" encoding="utf-8"?>
<!-- Generator: Adobe Illustrator 16.0.0, SVG Export Plug-In . SVG Version: 6.00 Build 0)  -->
<!DOCTYPE svg PUBLIC "-//W3C//DTD SVG 1.1//EN" "http://www.w3.org/Graphics/SVG/1.1/DTD/svg11.dtd">
<svg version="1.1" id="Layer_1" xmlns="http://www.w3.org/2000/svg" xmlns:xlink="http://www.w3.org/1999/xlink" x="0px" y="0px"
	 width="40px" height="40px" viewBox="12 12 40 40" enable-background="new 12 12 40 40" xml:space="preserve">
<g>
	<rect x="26.084" y="18.781" fill="#5C5F66" width="11.744" height="9.396"/>
	<rect x="31.956" y="18.781" fill="#53565C" width="5.872" height="9.396"/>
	<path fill="#F23051" d="M46.127,46.968H17.784c-0.36,0-0.703-0.166-0.925-0.451c-0.223-0.285-0.302-0.655-0.213-1.008l3.808-15.231
		c0.654-2.62,3.075-4.449,5.775-4.449h11.456c2.699,0,5.121,1.83,5.774,4.449l3.809,15.231c0.088,0.353,0.009,0.723-0.214,1.008
		S46.489,46.968,46.127,46.968z"/>
	<path fill="#D92C48" d="M43.458,30.277c-0.653-2.62-3.075-4.449-5.774-4.449h-5.728v21.14h14.171c0.361,0,0.704-0.166,0.926-0.451
		c0.223-0.285,0.302-0.655,0.214-1.008L43.458,30.277z"/>
	<path fill="#F23051" d="M50.825,25.828h-5.047c-1.551,0-2.899-0.92-3.354-2.29c-0.479-1.441-1.902-2.408-3.422-2.408H24.909
		c-1.52,0-2.942,0.967-3.422,2.41c-0.456,1.368-1.805,2.288-3.355,2.288h-5.046c-0.65,0-1.174-0.525-1.174-1.174v-2.349
		c0-4.533,3.688-8.222,8.221-8.222h23.646c4.532,0,8.222,3.688,8.222,8.222v2.349C52,25.303,51.475,25.828,50.825,25.828z"/>
	<path fill="#D92C48" d="M43.778,14.083H31.956v7.047h7.047c1.521,0,2.942,0.968,3.422,2.409c0.455,1.37,1.804,2.289,3.354,2.289
		h5.047c0.649,0,1.174-0.525,1.174-1.174v-2.349C52,17.771,48.311,14.083,43.778,14.083z"/>
	<path fill="#C4CAD9" d="M31.956,42.271c-3.239,0-5.872-2.634-5.872-5.872s2.633-5.873,5.872-5.873c3.238,0,5.872,2.634,5.872,5.873
		S35.194,42.271,31.956,42.271z"/>
	<path fill="#B8BFCC" d="M37.828,36.398c0-3.238-2.634-5.873-5.872-5.873v11.745C35.194,42.271,37.828,39.635,37.828,36.398z"/>
	<path fill="#E6EEFF" d="M31.956,39.922L31.956,39.922c-1.946,0-3.523-1.577-3.523-3.523l0,0c0-1.945,1.578-3.523,3.523-3.523l0,0
		c1.945,0,3.523,1.578,3.523,3.523l0,0C35.479,38.345,33.901,39.922,31.956,39.922z"/>
	<path fill="#DAE2F2" d="M35.479,36.398c0-1.945-1.578-3.523-3.523-3.523v7.047C33.901,39.922,35.479,38.345,35.479,36.398z"/>
	<path fill="#5C5F66" d="M46.127,51.666H17.784c-1.943,0-3.523-1.581-3.523-3.523s1.581-3.523,3.523-3.523h28.343
		c1.942,0,3.523,1.581,3.523,3.523S48.069,51.666,46.127,51.666z"/>
	<path fill="#53565C" d="M46.127,44.619H31.956v7.047h14.171c1.942,0,3.523-1.581,3.523-3.523S48.069,44.619,46.127,44.619z"/>
</g>
</svg>
