<?xml version="1.0" encoding="utf-8"?>
<!-- Generator: Adobe Illustrator 16.0.0, SVG Export Plug-In . SVG Version: 6.00 Build 0)  -->
<!DOCTYPE svg PUBLIC "-//W3C//DTD SVG 1.1//EN" "http://www.w3.org/Graphics/SVG/1.1/DTD/svg11.dtd">
<svg version="1.1" id="Layer_1" xmlns="http://www.w3.org/2000/svg" xmlns:xlink="http://www.w3.org/1999/xlink" x="0px" y="0px"
	 width="40px" height="40px" viewBox="12 12 40 40" enable-background="new 12 12 40 40" xml:space="preserve">
<path fill="#D2DAE9" d="M51.345,28.103L37.45,37.432l-0.005,3.148l13.986,9.491c0.241-0.475,0.39-1.003,0.39-1.571V29.834
	C51.821,29.202,51.641,28.616,51.345,28.103z"/>
<path fill="#C7CEDD" d="M26.339,37.463l-13.938-9.22C12.154,28.723,12,29.258,12,29.834V48.5c0,0.568,0.149,1.098,0.39,1.572
	l13.964-9.472L26.339,37.463z"/>
<path fill="#E6EEFF" d="M39.186,39.01l-14.583,0.03L12.39,50.071C13.011,51.293,14.231,52,15.5,52h32.822
	c1.27,0,2.489-0.707,3.109-1.929L39.186,39.01z"/>
<path fill="#DAE2F2" d="M31.911,39.025V52h16.411c1.27,0,2.489-0.707,3.109-1.929L39.186,39.01L31.911,39.025z"/>
<path fill="#B999FF" d="M51.355,28.107c-14.069,12.694-11.978,10.733-17.135,15.4c-0.676,0.56-1.492,0.864-2.31,0.864
	c-0.816,0-1.633-0.304-2.31-0.864c-12.6-11.246-2.364-2.053-17.204-15.26c0.631-1.19,1.821-1.913,3.104-1.913h32.821
	C49.512,26.334,50.702,26.965,51.355,28.107z"/>
<path fill="#A680FF" d="M51.355,28.107c-14.069,12.694-11.978,10.733-17.135,15.4c-0.676,0.56-1.492,0.864-2.31,0.864V26.334h16.411
	C49.512,26.334,50.702,26.965,51.355,28.107z"/>
</svg>
