<?xml version="1.0" encoding="utf-8"?>
<!-- Generator: Adobe Illustrator 16.0.0, SVG Export Plug-In . SVG Version: 6.00 Build 0)  -->
<!DOCTYPE svg PUBLIC "-//W3C//DTD SVG 1.1//EN" "http://www.w3.org/Graphics/SVG/1.1/DTD/svg11.dtd">
<svg version="1.1" id="Layer_1" xmlns="http://www.w3.org/2000/svg" xmlns:xlink="http://www.w3.org/1999/xlink" x="0px" y="0px"
	 width="40px" height="40px" viewBox="12 12 40 40" enable-background="new 12 12 40 40" xml:space="preserve">
<path fill="#4DB5FF" d="M48.484,16.594H15.516c-1.941,0-3.516,1.575-3.516,3.516v3.516l2.344,2.344h35.313L52,23.625v-3.516
	C52,18.168,50.426,16.594,48.484,16.594z"/>
<path fill="#4D97FF" d="M48.484,16.594H32v9.375h17.656L52,23.625v-3.516C52,18.168,50.426,16.594,48.484,16.594z"/>
<path fill="#E6EEFF" d="M12,23.625v24.609c0,0.647,0.525,1.172,1.172,1.172h37.656c0.647,0,1.172-0.524,1.172-1.172V23.625H12z"/>
<path fill="#DAE2F2" d="M32,49.406h18.828c0.647,0,1.172-0.524,1.172-1.172V23.625H32V49.406z"/>
<path fill="#A1A7B3" d="M46.141,44.719H17.859c-0.647,0-1.172-0.524-1.172-1.172V29.484c0-0.647,0.525-1.172,1.172-1.172h28.281
	c0.647,0,1.172,0.525,1.172,1.172v14.063C47.313,44.194,46.788,44.719,46.141,44.719z"/>
<path fill="#979CA7" d="M46.141,28.313H32v16.406h14.141c0.647,0,1.172-0.524,1.172-1.172V29.484
	C47.313,28.837,46.788,28.313,46.141,28.313z"/>
<rect x="19.031" y="30.656" fill="#E6EEFF" width="25.938" height="11.719"/>
<rect x="32" y="30.656" fill="#DAE2F2" width="12.969" height="11.719"/>
<g>
	<path fill="#A1A7B3" d="M24.891,44.719c-0.647,0-1.172-0.523-1.172-1.172V29.484c0-0.647,0.524-1.172,1.172-1.172
		s1.172,0.524,1.172,1.172v14.063C26.063,44.195,25.538,44.719,24.891,44.719z"/>
	<path fill="#A1A7B3" d="M32,44.719c-0.647,0-1.172-0.523-1.172-1.172V29.484c0-0.647,0.524-1.172,1.172-1.172
		c0.648,0,1.172,0.524,1.172,1.172v14.063C33.172,44.195,32.648,44.719,32,44.719z"/>
</g>
<path fill="#979CA7" d="M39.109,39.478c-0.648,0-1.172-0.525-1.172-1.172v-8.821c0-0.647,0.523-1.172,1.172-1.172
	s1.172,0.524,1.172,1.172v8.821C40.281,38.952,39.758,39.478,39.109,39.478z"/>
<path fill="#A1A7B3" d="M46.141,37.688H17.859c-0.647,0-1.172-0.523-1.172-1.172s0.524-1.172,1.172-1.172h28.281
	c0.648,0,1.172,0.523,1.172,1.172S46.789,37.688,46.141,37.688z"/>
<g>
	<path fill="#5C5F66" d="M17.859,21.281c-0.647,0-1.172-0.524-1.172-1.172v-4.688c0-0.647,0.524-1.172,1.172-1.172
		s1.172,0.524,1.172,1.172v4.688C19.031,20.757,18.507,21.281,17.859,21.281z"/>
	<path fill="#5C5F66" d="M24.891,21.281c-0.647,0-1.172-0.524-1.172-1.172v-4.688c0-0.647,0.524-1.172,1.172-1.172
		s1.172,0.524,1.172,1.172v4.688C26.063,20.757,25.538,21.281,24.891,21.281z"/>
</g>
<g>
	<path fill="#53565C" d="M39.109,21.281c-0.648,0-1.172-0.524-1.172-1.172v-4.688c0-0.647,0.523-1.172,1.172-1.172
		s1.172,0.524,1.172,1.172v4.688C40.281,20.757,39.758,21.281,39.109,21.281z"/>
	<path fill="#53565C" d="M46.141,21.281c-0.648,0-1.172-0.524-1.172-1.172v-4.688c0-0.647,0.523-1.172,1.172-1.172
		s1.172,0.524,1.172,1.172v4.688C47.313,20.757,46.789,21.281,46.141,21.281z"/>
</g>
<path fill="#5C5F66" d="M32,21.281c-0.647,0-1.172-0.524-1.172-1.172v-4.688c0-0.647,0.524-1.172,1.172-1.172
	c0.648,0,1.172,0.524,1.172,1.172v4.688C33.172,20.757,32.648,21.281,32,21.281z"/>
<path fill="#53565C" d="M33.172,20.109v-4.688c0-0.647-0.523-1.172-1.172-1.172v7.031C32.648,21.281,33.172,20.757,33.172,20.109z"
	/>
<g>
	<path fill="#979CA7" d="M33.172,43.547V29.484c0-0.647-0.523-1.172-1.172-1.172v16.406C32.648,44.719,33.172,44.195,33.172,43.547z
		"/>
	<path fill="#979CA7" d="M46.141,35.344H32v2.344h14.141c0.648,0,1.172-0.523,1.172-1.172S46.789,35.344,46.141,35.344z"/>
</g>
<path fill="#29CCB1" d="M43.797,35.344c-4.522,0-8.203,3.681-8.203,8.203s3.681,8.203,8.203,8.203S52,48.069,52,43.547
	S48.319,35.344,43.797,35.344z"/>
<path fill="#DAE2F2" d="M43.797,47.063c-0.299,0-0.6-0.115-0.828-0.344l-2.344-2.344c-0.457-0.458-0.457-1.199,0-1.656
	c0.458-0.457,1.199-0.457,1.656,0l1.516,1.516l1.516-1.516c0.457-0.457,1.199-0.457,1.656,0s0.457,1.198,0,1.656l-2.344,2.344
	C44.396,46.947,44.096,47.063,43.797,47.063z"/>
</svg>
