<?xml version="1.0" encoding="utf-8"?>
<!-- Generator: Adobe Illustrator 16.0.0, SVG Export Plug-In . SVG Version: 6.00 Build 0)  -->
<!DOCTYPE svg PUBLIC "-//W3C//DTD SVG 1.1//EN" "http://www.w3.org/Graphics/SVG/1.1/DTD/svg11.dtd">
<svg version="1.1" id="Layer_1" xmlns="http://www.w3.org/2000/svg" xmlns:xlink="http://www.w3.org/1999/xlink" x="0px" y="0px"
	 width="40px" height="40px" viewBox="230 230 40 40" enable-background="new 230 230 40 40" xml:space="preserve">
<path fill="#5C5F66" d="M261.675,237.079h-23.35c-1.932,0-3.503,1.571-3.503,3.502v25.842c0,1.932,1.571,3.502,3.503,3.502h23.35
	c1.932,0,3.503-1.57,3.503-3.502v-25.842C265.178,238.65,263.606,237.079,261.675,237.079z"/>
<path fill="#53565C" d="M261.675,237.079H250v32.847h11.675c1.932,0,3.503-1.57,3.503-3.502v-25.842
	C265.178,238.65,263.606,237.079,261.675,237.079z"/>
<path fill="#E6EEFF" d="M238.325,267.591c-0.644,0-1.167-0.523-1.167-1.167v-25.842c0-0.644,0.523-1.167,1.167-1.167h23.35
	c0.645,0,1.168,0.524,1.168,1.167v25.842c0,0.644-0.523,1.167-1.168,1.167H238.325z"/>
<path fill="#DAE2F2" d="M261.675,239.414H250v28.177h11.675c0.645,0,1.168-0.523,1.168-1.167v-25.842
	C262.843,239.938,262.319,239.414,261.675,239.414z"/>
<path fill="#39C4AF" d="M255.838,241.749h-11.675c-1.932,0-3.503-1.571-3.503-3.502c0-1.931,1.571-3.502,3.503-3.502h1.167
	c0-2.576,2.094-4.67,4.67-4.67c2.575,0,4.67,2.094,4.67,4.67h1.168c1.932,0,3.502,1.571,3.502,3.502
	C259.34,240.178,257.77,241.749,255.838,241.749z"/>
<path fill="#7F838C" d="M259.34,248.755H250c-0.645,0-1.167-0.522-1.167-1.167c0-0.646,0.522-1.167,1.167-1.167h9.34
	c0.646,0,1.168,0.522,1.168,1.167C260.508,248.232,259.985,248.755,259.34,248.755z"/>
<path fill="#4DB5FF" d="M242.995,248.755c-0.299,0-0.598-0.114-0.826-0.342l-2.335-2.335c-0.457-0.456-0.457-1.194,0-1.65
	c0.456-0.456,1.195-0.456,1.651,0l1.51,1.509l1.509-1.509c0.456-0.456,1.195-0.456,1.651,0s0.456,1.195,0,1.65l-2.335,2.335
	C243.592,248.641,243.293,248.755,242.995,248.755z"/>
<path fill="#7F838C" d="M259.34,255.76H250c-0.645,0-1.167-0.522-1.167-1.168c0-0.645,0.522-1.167,1.167-1.167h9.34
	c0.646,0,1.168,0.522,1.168,1.167C260.508,255.237,259.985,255.76,259.34,255.76z"/>
<path fill="#4DB5FF" d="M242.995,255.76c-0.299,0-0.598-0.114-0.826-0.342l-2.335-2.335c-0.457-0.456-0.457-1.195,0-1.651
	c0.456-0.456,1.195-0.456,1.651,0l1.51,1.509l1.509-1.509c0.456-0.456,1.195-0.456,1.651,0s0.456,1.195,0,1.651l-2.335,2.335
	C243.592,255.646,243.293,255.76,242.995,255.76z"/>
<path fill="#7F838C" d="M259.34,262.766H250c-0.645,0-1.167-0.523-1.167-1.168c0-0.646,0.522-1.167,1.167-1.167h9.34
	c0.646,0,1.168,0.521,1.168,1.167C260.508,262.242,259.985,262.766,259.34,262.766z"/>
<path fill="#4DB5FF" d="M242.995,262.766c-0.299,0-0.598-0.114-0.826-0.343l-2.335-2.335c-0.457-0.456-0.457-1.195,0-1.651
	c0.456-0.456,1.195-0.456,1.651,0l1.51,1.511l1.509-1.511c0.456-0.456,1.195-0.456,1.651,0s0.456,1.195,0,1.651l-2.335,2.335
	C243.592,262.651,243.293,262.766,242.995,262.766z"/>
<g>
	<path fill="#757982" d="M259.34,262.766c0.646,0,1.168-0.523,1.168-1.168c0-0.646-0.522-1.167-1.168-1.167H250v2.335H259.34z"/>
	<path fill="#757982" d="M259.34,255.76c0.646,0,1.168-0.522,1.168-1.168c0-0.645-0.522-1.167-1.168-1.167H250v2.335H259.34z"/>
	<path fill="#757982" d="M259.34,248.755c0.646,0,1.168-0.522,1.168-1.167c0-0.646-0.522-1.167-1.168-1.167H250v2.335H259.34z"/>
</g>
<path fill="#34AF9C" d="M255.838,241.749c1.932,0,3.502-1.571,3.502-3.502c0-1.931-1.57-3.502-3.502-3.502h-1.168
	c0-2.576-2.095-4.67-4.67-4.67v11.675H255.838z"/>
</svg>
