<?xml version="1.0" encoding="utf-8"?>
<svg width="148px" height="40px" viewBox="0 0 148 40" version="1.1" xmlns:xlink="http://www.w3.org/1999/xlink" xmlns="http://www.w3.org/2000/svg">
  <desc>Created with Lunacy</desc>
  <g id="Logo">
    <g id="Group">
      <path d="M0 0L0 25.3465L6.33664 25.3465L6.33664 6.33663L0 0Z" transform="translate(0 14.65346)" id="New-shape" fill="#000000" stroke="none" />
      <path d="M0 0L19.0099 19.0099L11.0979 19.0099L0 7.74752L0 0Z" transform="translate(6.336631 20.99009)" id="New-shape-3" fill="#000000" stroke="none" />
      <path d="M0 8.31685L22.1782 29.3069L38.0198 14.6535L38.0198 40L44.3564 40L44.3564 0L22.1782 20.9901L0 0L0 8.31685Z" id="New-shape" fill="#000000" stroke="none" />
    </g>
    <g id="axotik" transform="translate(48.73002 10)">
      <path d="M86.7129 21.9961L88.541 20.168L93.4277 27.7969L99.2637 27.7969L91.793 16.7051L98.666 8.77734L92.5664 8.77734L87.6973 14.4902L86.7129 15.7559L86.7129 0.796875L81.6328 0.796875L81.6328 27.7969L86.7129 27.7969L86.7129 21.9961ZM72.0527 3.85547Q72.0527 2.71289 72.8174 1.97461Q73.582 1.23633 74.9004 1.23633Q76.2012 1.23633 76.9746 1.97461Q77.748 2.71289 77.748 3.85547Q77.748 5.01563 76.9658 5.75391Q76.1836 6.49219 74.9004 6.49219Q73.6172 6.49219 72.835 5.75391Q72.0527 5.01563 72.0527 3.85547ZM66.0059 8.77734L66.0059 4.10156L60.9258 4.10156L60.9258 8.77734L58.1484 8.77734L58.1484 12.5039L60.9258 12.5039L60.9258 22.752Q61.0313 28.1484 66.375 28.1484Q67.957 28.1484 69.4512 27.6914L69.4512 23.8418Q68.8008 23.9648 67.957 23.9648Q66.8145 23.9648 66.4102 23.5078Q66.0059 23.0508 66.0059 21.9961L66.0059 12.5039L69.2578 12.5039L69.2578 8.77734L66.0059 8.77734ZM12.4629 26.0918Q12.6211 27.1113 12.9727 27.7969L18.1055 27.7969L18.1055 27.498Q17.3672 26.1094 17.3496 23.4023L17.3496 15.1582Q17.3496 11.959 15.2842 10.1924Q13.2188 8.42578 9.70313 8.42578Q7.38281 8.42578 5.51953 9.22559Q3.65625 10.0254 2.63672 11.4316Q1.61719 12.8379 1.61719 14.4902L6.69727 14.4902Q6.69727 13.418 7.42676 12.8027Q8.15625 12.1875 9.43945 12.1875Q10.8984 12.1875 11.5752 12.9785Q12.252 13.7695 12.252 15.0879L12.252 16.1777L9.91406 16.1777Q5.67773 16.1953 3.43652 17.8125Q1.19531 19.4297 1.19531 22.4531Q1.19531 24.9141 3.03223 26.5313Q4.86914 28.1484 7.66406 28.1484Q10.6172 28.1484 12.4629 26.0918ZM38.7773 18.1113Q38.7773 15.2813 39.8672 13.0664Q40.957 10.8516 43.0049 9.63867Q45.0527 8.42578 47.7598 8.42578Q51.6094 8.42578 54.0439 10.7813Q56.4785 13.1367 56.7598 17.1797L56.7949 18.4805Q56.7949 22.8574 54.3516 25.5029Q51.9082 28.1484 47.7949 28.1484Q43.6816 28.1484 41.2295 25.5117Q38.7773 22.875 38.7773 18.3398L38.7773 18.1113ZM31.6934 8.77734L28.4941 14.4551L25.3652 8.77734L19.916 8.77734L25.3125 18.0938L19.6699 27.7969L25.1367 27.7969L28.5117 21.8203L31.9043 27.7969L37.3535 27.7969L31.7109 18.0938L37.125 8.77734L31.6934 8.77734ZM72.3516 27.7969L72.3516 8.77734L77.4492 8.77734L77.4492 27.7969L72.3516 27.7969ZM43.8574 18.472Q43.8574 21.1831 44.877 22.6179Q45.8965 24.0527 47.7949 24.0527Q49.6406 24.0527 50.6777 22.6355Q51.7148 21.2183 51.7148 18.1023Q51.7148 15.4438 50.6777 13.9827Q49.6406 12.5215 47.7598 12.5215Q45.8965 12.5215 44.877 13.9739Q43.8574 15.4263 43.8574 18.472ZM10.8457 23.7627Q9.89648 24.2637 8.77148 24.2637Q7.61133 24.2637 6.94336 23.6484Q6.27539 23.0332 6.27539 22.084L6.29297 21.7852Q6.53906 19.1484 10.3535 19.1484L12.252 19.1484L12.252 22.418Q11.7949 23.2617 10.8457 23.7627Z" />
    </g>
  </g>
</svg>