<?xml version="1.0" encoding="utf-8"?>
<svg width="128px" height="128px" viewBox="0 0 128 128" version="1.1" xmlns:xlink="http://www.w3.org/1999/xlink" xmlns="http://www.w3.org/2000/svg">
  <desc>Created with Lunacy</desc>
  <defs>
    <linearGradient x1="-0.2089844" y1="0.5" x2="1.41407037" y2="0.5" id="gradient_1">
      <stop offset="0.007" stop-color="#8AA6F3" />
      <stop offset="0.992" stop-color="#FFE8DC" stop-opacity="0" />
    </linearGradient>
  </defs>
  <g id="wallet">
    <path d="M0 0L128 0L128 128L0 128L0 0Z" id="Background" fill="none" stroke="none" />
    <path d="M128 57.946C128 51.0383 124.874 44.5623 119.413 38.9867C115.613 35.1073 112.45 30.663 110.035 25.799C102.313 10.2448 89.1465 0 74.201 0C63.5802 0 53.8587 5.1745 46.3503 13.7507C41.3802 19.4275 35.105 23.782 28.1035 26.5935C11.1438 33.404 0 44.9042 0 57.946C0 70.9878 11.1438 82.488 28.1035 89.2985C35.105 92.1103 41.3802 96.4645 46.3505 102.141C53.859 110.717 63.5805 115.892 74.2012 115.892C89.1467 115.892 102.313 105.647 110.035 90.093C112.45 85.229 115.614 80.7848 119.413 76.9053C124.874 71.3298 128 64.8538 128 57.946L128 57.946Z" transform="translate(0 6.23225)" id="Shape" fill="url(#gradient_1)" stroke="none" />
    <path d="M98.951 19.6062C100.332 19.6062 101.451 18.487 101.451 17.1063L101.451 0L0 0L0 44.5452C0 49.2092 3.781 52.9902 8.445 52.9902L64.295 52.9902C65.1432 62.3002 72.9672 69.5942 82.4982 69.5942C92.5957 69.5942 100.781 61.4085 100.781 51.311C100.781 42.8732 95.0637 35.7742 87.2927 33.6675L87.2927 19.6065L98.951 19.6065L98.951 19.6062Z" transform="translate(13.27451 51.63675)" id="Shape" fill="#0742E2" fill-opacity="0.2" stroke="none" />
    <path d="M84.7915 16.8915L8.44575 16.8915C3.78125 16.8915 0 13.1103 0 8.44575C0 3.78125 3.78125 0 8.44575 0L87.2915 0L87.2915 14.3918C87.2915 15.7723 86.1723 16.8915 84.7915 16.8915L84.7915 16.8915Z" transform="translate(13.2755 27.4865)" id="Shape" fill="#4D4DFF" stroke="none" />
    <path d="M89.545 50.4055L2.5 50.4055C1.11925 50.4055 0 49.2863 0 47.9055L0 2.5C0 1.11925 1.11925 0 2.5 0L89.545 0C90.9258 0 92.045 1.11925 92.045 2.5L92.045 47.9055C92.045 49.2863 90.9258 50.4055 89.545 50.4055L89.545 50.4055Z" transform="translate(23.20502 15.3445)" id="Shape" fill="#FF9800" stroke="none" />
    <path d="M76.457 4.07525L77.0798 1.54925C77.274 0.76125 76.6778 0 75.866 0L6.17925 0C5.36775 0 4.77125 0.76125 4.9655 1.54925L5.58825 4.07525C5.81325 4.988 4.988 5.81325 4.07525 5.58825L1.54925 4.9655C0.76125 4.77125 0 5.3675 0 6.17925L0 34.2268C0 35.0383 0.76125 35.6348 1.54925 35.4405L4.07525 34.8178C4.988 34.5928 5.81325 35.418 5.58825 36.3308L4.9655 38.8568C4.77125 39.6448 5.3675 40.406 6.17925 40.406L75.8662 40.406C76.6777 40.406 77.2742 39.6448 77.08 38.8568L76.4573 36.3308C76.2322 35.418 77.0575 34.5928 77.9703 34.8178L80.4963 35.4405C81.2843 35.6348 82.0455 35.0385 82.0455 34.2268L82.0455 6.17925C82.0455 5.36775 81.2842 4.77125 80.4963 4.9655L77.9703 5.58825C77.0572 5.813 76.232 4.988 76.457 4.07525L76.457 4.07525Z" transform="translate(27.68024 20.5875)" id="Shape" fill="#EEEEEE" stroke="none" />
    <path d="M0 14.3263C0 6.41408 6.41408 0 14.3262 0C22.2384 0 28.6525 6.41408 28.6525 14.3263C28.6525 22.2384 22.2384 28.6525 14.3262 28.6525C6.41408 28.6525 0 22.2384 0 14.3263Z" transform="translate(54.37675 26.46375)" id="Circle" fill="#FFCB80" stroke="none" />
    <path d="M0 4.68475C0 2.09743 2.09743 0 4.68475 0C7.27207 0 9.3695 2.09743 9.3695 4.68475C9.3695 7.27207 7.27207 9.3695 4.68475 9.3695C2.09743 9.3695 0 7.27207 0 4.68475Z" transform="translate(53.0265 25.1135)" id="Circle" fill="#FFB241" stroke="none" />
    <path d="M0 4.68475C0 2.09743 2.09743 0 4.68475 0C7.27207 0 9.3695 2.09743 9.3695 4.68475C9.3695 7.27207 7.27207 9.3695 4.68475 9.3695C2.09743 9.3695 0 7.27207 0 4.68475Z" transform="translate(75.01025 47.09725)" id="Circle" fill="#FFAB66" stroke="none" />
    <path d="M7.03375 12.5957L1.7885 12.5957C1.098 12.5957 0.538502 12.036 0.538502 11.3457C0.538502 10.6555 1.098 10.0957 1.7885 10.0957L7.03375 10.0957C7.73625 10.0957 8.30775 9.52425 8.30775 8.82175C8.30775 8.11925 7.73625 7.54775 7.03375 7.54775L3.774 7.54775C1.693 7.54775 0 5.85475 0 3.77375C0 1.69275 1.69275 0 3.774 0L9.01925 0C9.70975 0 10.2692 0.55975 10.2692 1.25C10.2692 1.94025 9.70975 2.5 9.01925 2.5L3.774 2.5C3.0715 2.5 2.5 3.0715 2.5 3.77375C2.5 4.476 3.0715 5.04775 3.774 5.04775L7.03375 5.04775C9.11475 5.04775 10.8078 6.74075 10.8078 8.82175C10.8078 10.9027 9.11475 12.5957 7.03375 12.5957L7.03375 12.5957Z" transform="translate(63.29926 34.49226)" id="Shape" fill="#FF9800" stroke="none" />
    <path d="M1.25 16.3545C0.559502 16.3545 0 15.7947 0 15.1045L0 1.25C0 0.55975 0.559502 0 1.25 0C1.9405 0 2.5 0.55975 2.5 1.25L2.5 15.1045C2.5 15.7947 1.94025 16.3545 1.25 16.3545L1.25 16.3545Z" transform="translate(67.45325 32.613)" id="Shape" fill="#FF9800" stroke="none" />
    <path d="M0 1.3975C0 0.625682 0.625682 0 1.3975 0C2.16932 0 2.795 0.625682 2.795 1.3975C2.795 2.16932 2.16932 2.795 1.3975 2.795C0.625682 2.795 0 2.16932 0 1.3975Z" transform="translate(89.328 47.77975)" id="Circle" fill="#FF4D4D" stroke="none" />
    <path d="M0 1.3975C0 0.625682 0.625682 0 1.3975 0C2.16932 0 2.795 0.625682 2.795 1.3975C2.795 2.16932 2.16932 2.795 1.3975 2.795C0.625682 2.795 0 2.16932 0 1.3975Z" transform="translate(93.55551 47.77975)" id="Circle" fill="#FF4D4D" stroke="none" />
    <path d="M1.3975 0C2.16925 0 2.795 0.625751 2.795 1.3975C2.795 2.16925 2.16925 2.795 1.3975 2.795C0.625748 2.795 0 2.16925 0 1.3975C0 0.625751 0.625504 0 1.3975 0" transform="translate(97.78325 47.78)" id="Shape" fill="#FF4D4D" stroke="none" />
    <path d="M0 1.3975C0 0.625682 0.625682 0 1.3975 0C2.16932 0 2.795 0.625682 2.795 1.3975C2.795 2.16932 2.16932 2.795 1.3975 2.795C0.625682 2.795 0 2.16932 0 1.3975Z" transform="translate(89.328 31.00525)" id="Circle" fill="#FF2929" stroke="none" />
    <path d="M0 1.3975C0 0.625682 0.625682 0 1.3975 0C2.16932 0 2.795 0.625682 2.795 1.3975C2.795 2.16932 2.16932 2.795 1.3975 2.795C0.625682 2.795 0 2.16932 0 1.3975Z" transform="translate(93.55551 31.00525)" id="Circle" fill="#FF2929" stroke="none" />
    <path d="M1.3975 0C2.16925 0 2.795 0.625749 2.795 1.3975C2.795 2.16925 2.16925 2.795 1.3975 2.795C0.625748 2.795 0 2.16925 0 1.3975C0 0.625753 0.625504 1.90735e-06 1.3975 1.90735e-06" transform="translate(97.78325 31.00525)" id="Shape" fill="#FF2929" stroke="none" />
    <path d="M0 1.3975C0 0.625682 0.625682 0 1.3975 0C2.16932 0 2.795 0.625682 2.795 1.3975C2.795 2.16932 2.16932 2.795 1.3975 2.795C0.625682 2.795 0 2.16932 0 1.3975Z" transform="translate(36.828 47.77975)" id="Circle" fill="#FF4D4D" stroke="none" />
    <path d="M0 1.3975C0 0.625682 0.625682 0 1.3975 0C2.16932 0 2.795 0.625682 2.795 1.3975C2.795 2.16932 2.16932 2.795 1.3975 2.795C0.625682 2.795 0 2.16932 0 1.3975Z" transform="translate(41.0555 47.77975)" id="Circle" fill="#FF4D4D" stroke="none" />
    <path d="M1.3975 0C2.16925 0 2.795 0.625751 2.795 1.3975C2.795 2.16925 2.16925 2.795 1.3975 2.795C0.625751 2.795 0 2.16925 0 1.3975C0 0.625751 0.625751 0 1.3975 0" transform="translate(45.283 47.78)" id="Shape" fill="#FF4D4D" stroke="none" />
    <path d="M0 1.3975C0 0.625682 0.625682 0 1.3975 0C2.16932 0 2.795 0.625682 2.795 1.3975C2.795 2.16932 2.16932 2.795 1.3975 2.795C0.625682 2.795 0 2.16932 0 1.3975Z" transform="translate(36.828 31.00525)" id="Circle" fill="#FF2929" stroke="none" />
    <path d="M0 1.3975C0 0.625682 0.625682 0 1.3975 0C2.16932 0 2.795 0.625682 2.795 1.3975C2.795 2.16932 2.16932 2.795 1.3975 2.795C0.625682 2.795 0 2.16932 0 1.3975Z" transform="translate(41.0555 31.00525)" id="Circle" fill="#FF2929" stroke="none" />
    <path d="M1.3975 0C2.16925 0 2.795 0.625749 2.795 1.3975C2.795 2.16925 2.16925 2.795 1.3975 2.795C0.625751 2.795 0 2.16925 0 1.3975C0.00025177 0.625751 0.625751 1.90735e-06 1.3975 1.90735e-06" transform="translate(45.283 31.00525)" id="Shape" fill="#FF2929" stroke="none" />
    <path d="M87.2925 10.9475L87.2925 60.945C87.2925 62.3258 86.1732 63.445 84.7925 63.445L8.445 63.445C3.781 63.445 0 59.664 0 55L0 0C0 4.665 3.7825 8.4475 8.4475 8.4475L84.7925 8.4475C86.1732 8.4475 87.2925 9.56675 87.2925 10.9475L87.2925 10.9475Z" transform="translate(13.2745 35.93176)" id="Shape" fill="#FF2929" stroke="none" />
    <g id="Group" transform="translate(28.7085 51.9035)">
      <path d="M4.25 2.5L1.25 2.5C0.559501 2.5 0 1.94025 0 1.25C0 0.55975 0.559501 0 1.25 0L4.25 0C4.9405 0 5.5 0.55975 5.5 1.25C5.5 1.94025 4.9405 2.5 4.25 2.5L4.25 2.5Z" transform="translate(59.80175 0)" id="Shape" fill="#FF9494" stroke="none" />
      <path d="M4.25 2.5L1.25 2.5C0.559502 2.5 0 1.94025 0 1.25C0 0.55975 0.559502 0 1.25 0L4.25 0C4.9405 0 5.5 0.55975 5.5 1.25C5.5 1.94025 4.9405 2.5 4.25 2.5L4.25 2.5Z" transform="translate(49.83475 0)" id="Shape" fill="#FF9494" stroke="none" />
      <path d="M4.25 2.5L1.25 2.5C0.559502 2.5 0 1.94025 0 1.25C0 0.55975 0.559502 0 1.25 0L4.25 0C4.9405 0 5.5 0.55975 5.5 1.25C5.5 1.94025 4.94025 2.5 4.25 2.5L4.25 2.5Z" transform="translate(39.868 0)" id="Shape" fill="#FF9494" stroke="none" />
      <path d="M4.25 2.5L1.25 2.5C0.559502 2.5 0 1.94025 0 1.25C0 0.55975 0.559502 0 1.25 0L4.25 0C4.9405 0 5.5 0.55975 5.5 1.25C5.5 1.94025 4.94025 2.5 4.25 2.5L4.25 2.5Z" transform="translate(29.901 0)" id="Shape" fill="#FF9494" stroke="none" />
      <path d="M4.25 2.5L1.25 2.5C0.559502 2.5 0 1.94025 0 1.25C0 0.55975 0.559502 0 1.25 0L4.25 0C4.9405 0 5.5 0.55975 5.5 1.25C5.5 1.94025 4.9405 2.5 4.25 2.5L4.25 2.5Z" transform="translate(19.93375 0)" id="Shape" fill="#FF9494" stroke="none" />
      <path d="M4.25 2.5L1.25 2.5C0.559502 2.5 0 1.94025 0 1.25C0 0.55975 0.559502 0 1.25 0L4.25 0C4.9405 0 5.5 0.55975 5.5 1.25C5.5 1.94025 4.9405 2.5 4.25 2.5L4.25 2.5Z" transform="translate(9.966999 0)" id="Shape" fill="#FF9494" stroke="none" />
      <path d="M4.25 2.5L1.25 2.5C0.5595 2.5 0 1.94025 0 1.25C0 0.55975 0.5595 0 1.25 0L4.25 0C4.9405 0 5.5 0.55975 5.5 1.25C5.5 1.94025 4.9405 2.5 4.25 2.5L4.25 2.5Z" id="Shape" fill="#FF9494" stroke="none" />
      <path d="M1.25 5.5C0.559501 5.5 0 4.94025 0 4.25L0 1.25C0 0.559753 0.559501 0 1.25 0C1.9405 0 2.5 0.559753 2.5 1.25L2.5 4.25C2.5 4.94025 1.9405 5.5 1.25 5.5L1.25 5.5Z" transform="translate(63.01 28.401)" id="Shape" fill="#FF9494" stroke="none" />
      <path d="M1.25 5.5C0.559501 5.5 0 4.94025 0 4.25L0 1.25C0 0.559753 0.559501 0 1.25 0C1.9405 0 2.5 0.559753 2.5 1.25L2.5 4.25C2.5 4.94025 1.9405 5.5 1.25 5.5L1.25 5.5Z" transform="translate(63.01 18.434)" id="Shape" fill="#FF9494" stroke="none" />
      <path d="M1.25 5.5C0.559501 5.5 0 4.94025 0 4.25L0 1.25C0 0.55975 0.559501 0 1.25 0C1.9405 0 2.5 0.55975 2.5 1.25L2.5 4.25C2.5 4.94025 1.9405 5.5 1.25 5.5L1.25 5.5Z" transform="translate(63.01 8.466999)" id="Shape" fill="#FF9494" stroke="none" />
      <path d="M4.25 2.5L1.25 2.5C0.559501 2.5 0 1.94025 0 1.25C0 0.559753 0.559501 0 1.25 0L4.25 0C4.9405 0 5.5 0.559753 5.5 1.25C5.5 1.94025 4.9405 2.5 4.25 2.5L4.25 2.5Z" transform="translate(59.80175 38.16675)" id="Shape" fill="#FF9494" stroke="none" />
      <path d="M4.25 2.5L1.25 2.5C0.559502 2.5 0 1.94025 0 1.25C0 0.559753 0.559502 0 1.25 0L4.25 0C4.9405 0 5.5 0.559753 5.5 1.25C5.5 1.94025 4.9405 2.5 4.25 2.5L4.25 2.5Z" transform="translate(49.83475 38.16675)" id="Shape" fill="#FF9494" stroke="none" />
      <path d="M4.25 2.5L1.25 2.5C0.559502 2.5 0 1.94025 0 1.25C0 0.559753 0.559502 0 1.25 0L4.25 0C4.9405 0 5.5 0.559753 5.5 1.25C5.5 1.94025 4.94025 2.5 4.25 2.5L4.25 2.5Z" transform="translate(39.868 38.16675)" id="Shape" fill="#FF9494" stroke="none" />
      <path d="M4.25 2.5L1.25 2.5C0.559502 2.5 0 1.94025 0 1.25C0 0.559753 0.559502 0 1.25 0L4.25 0C4.9405 0 5.5 0.559753 5.5 1.25C5.5 1.94025 4.94025 2.5 4.25 2.5L4.25 2.5Z" transform="translate(29.901 38.16675)" id="Shape" fill="#FF9494" stroke="none" />
      <path d="M4.25 2.5L1.25 2.5C0.559502 2.5 0 1.94025 0 1.25C0 0.559753 0.559502 0 1.25 0L4.25 0C4.9405 0 5.5 0.559753 5.5 1.25C5.5 1.94025 4.9405 2.5 4.25 2.5L4.25 2.5Z" transform="translate(19.93375 38.16675)" id="Shape" fill="#FF9494" stroke="none" />
      <path d="M4.25 2.5L1.25 2.5C0.559502 2.5 0 1.94025 0 1.25C0 0.559753 0.559502 0 1.25 0L4.25 0C4.9405 0 5.5 0.559753 5.5 1.25C5.5 1.94025 4.9405 2.5 4.25 2.5L4.25 2.5Z" transform="translate(9.966999 38.16675)" id="Shape" fill="#FF9494" stroke="none" />
      <path d="M4.25 2.5L1.25 2.5C0.5595 2.5 0 1.94025 0 1.25C0 0.559753 0.5595 0 1.25 0L4.25 0C4.9405 0 5.5 0.559753 5.5 1.25C5.5 1.94025 4.9405 2.5 4.25 2.5L4.25 2.5Z" transform="translate(0 38.16675)" id="Shape" fill="#FF9494" stroke="none" />
    </g>
    <path d="M0 18.2833C0 8.18569 8.18569 0 18.2833 0C28.3808 0 36.5665 8.18569 36.5665 18.2833C36.5665 28.3808 28.3808 36.5665 18.2833 36.5665C8.18569 36.5665 0 28.3808 0 18.2833Z" transform="translate(77.48926 79.41425)" id="Circle" fill="#FFB241" stroke="none" />
    <path d="M103.951 49.1555C103.951 51.2233 102.269 52.9055 100.201 52.9055L89.7928 52.9055L89.7928 64.7887C97.6133 67.3405 103.282 74.699 103.282 83.3602C103.282 94.131 94.519 102.893 83.7483 102.893C72.9778 102.893 64.2152 94.131 64.2152 83.3602C64.2152 72.5895 72.9778 63.827 83.7482 63.827C84.959 63.827 86.1425 63.9435 87.2927 64.1552L87.2927 51.6555C87.2927 50.9653 87.8522 50.4055 88.5427 50.4055L100.202 50.4055C100.891 50.4055 101.452 49.8447 101.452 49.1555L101.452 3.75C101.452 3.06075 100.891 2.5 100.202 2.5L13.1565 2.5C12.4672 2.5 11.9065 3.06075 11.9065 3.75L11.9065 28.7918L29.8595 28.7918L29.8595 23.945L29.7485 23.945C29.058 23.945 28.4985 23.3853 28.4985 22.695C28.4985 22.0048 29.058 21.445 29.7485 21.445L31.1095 21.445C31.8 21.445 32.3595 22.0048 32.3595 22.695L32.3595 28.7918L82.3595 28.7918L82.3595 23.945L82.2485 23.945C81.558 23.945 80.9985 23.3853 80.9985 22.695C80.9985 22.0048 81.558 21.445 82.2485 21.445L83.6095 21.445C84.3 21.445 84.8595 22.0048 84.8595 22.695L84.8595 28.7918L86.0427 28.7918C88.1105 28.7918 89.7928 30.474 89.7928 32.5418L89.7928 43.1555C89.7928 43.8458 89.2332 44.4055 88.5427 44.4055C87.8522 44.4055 87.2927 43.8458 87.2927 43.1555L87.2927 32.5418C87.2927 31.8525 86.732 31.2918 86.0427 31.2918L9.69774 31.2918C6.84524 31.2918 4.27625 30.0537 2.50024 28.0868L2.50024 76.5943C2.50024 80.5615 5.72799 83.7893 9.69524 83.7893L56.9647 83.7893C57.6552 83.7893 58.2147 84.349 58.2147 85.0392C58.2147 85.7295 57.6552 86.2892 56.9647 86.2892L9.695 86.2892C4.349 86.2892 0 81.94 0 76.5943L0 21.5943C0 21.5898 0.00125027 21.5858 0.00125027 21.5813C0.0085001 16.3388 4.19875 12.061 9.40625 11.9065L9.40625 3.75C9.40625 1.68225 11.0885 0 13.1563 0L100.201 0C102.269 0 103.951 1.68225 103.951 3.75L103.951 49.1555ZM2.5005 21.6025C2.5005 21.6 2.50125 21.5975 2.50125 21.5947C2.50125 17.7245 5.573 14.5595 9.4065 14.4062L9.4065 28.7842C5.575 28.631 2.50475 25.4697 2.5005 21.6025ZM83.7482 100.393C93.1405 100.393 100.781 92.7522 100.781 83.3602C100.782 73.9682 93.1405 66.327 83.7483 66.327C74.356 66.327 66.7152 73.968 66.7152 83.3602C66.7152 92.7525 74.356 100.393 83.7482 100.393Z" transform="translate(12.02425 14.33725)" id="Shape" fill="#0742E2" fill-rule="evenodd" stroke="none" />
    <path d="M0 13.4895C0 6.03945 6.03945 0 13.4895 0C20.9395 0 26.979 6.03945 26.979 13.4895C26.979 20.9395 20.9395 26.979 13.4895 26.979C6.03945 26.979 0 20.9395 0 13.4895Z" transform="translate(82.28299 84.208)" id="Circle" fill="#EEEEEE" stroke="none" />
    <path d="M7.366 13.176L2.61275 13.176C1.92225 13.176 1.36275 12.6162 1.36275 11.926C1.36275 11.2357 1.92225 10.676 2.61275 10.676L7.366 10.676C8.1485 10.676 8.785 10.0395 8.785 9.257C8.785 8.47449 8.1485 7.838 7.366 7.838L3.919 7.838C1.758 7.838 0 6.07999 0 3.919C0 1.758 1.758 0 3.919 0L8.67225 0C9.36275 0 9.92225 0.559753 9.92225 1.25C9.92225 1.94025 9.36275 2.5 8.67225 2.5L3.919 2.5C3.1365 2.5 2.5 3.1365 2.5 3.919C2.5 4.7015 3.1365 5.338 3.919 5.338L7.366 5.338C9.527 5.338 11.285 7.096 11.285 9.257C11.285 11.418 9.52699 13.176 7.366 13.176L7.366 13.176Z" transform="translate(90.13 91.1095)" id="Shape" fill="#FF9800" stroke="none" />
    <path d="M1.25 17.1507C0.559502 17.1507 0 16.591 0 15.9007L0 1.25C0 0.559753 0.559502 0 1.25 0C1.9405 0 2.5 0.559753 2.5 1.25L2.5 15.9007C2.5 16.5912 1.9405 17.1507 1.25 17.1507L1.25 17.1507Z" transform="translate(94.52249 89.12201)" id="Shape" fill="#FF9800" stroke="none" />
    <path d="M1.24994 4.99975C0.930187 4.99975 0.60994 4.87775 0.366188 4.63375C-0.122063 4.1455 -0.122063 3.354 0.366188 2.866L2.86619 0.366C3.35394 -0.122 4.14594 -0.122 4.63369 0.366C5.12194 0.85425 5.12194 1.64575 4.63369 2.13375L2.13369 4.63375C1.88994 4.87775 1.56969 4.99975 1.24994 4.99975L1.24994 4.99975Z" transform="translate(37.42556 5.875999)" id="Shape" fill="#FF2929" stroke="none" />
    <path d="M1.24994 4.99975C0.930191 4.99975 0.60994 4.87775 0.366188 4.63375C-0.122063 4.1455 -0.122063 3.354 0.366188 2.866L2.86619 0.365997C3.35394 -0.122002 4.14594 -0.122002 4.63369 0.365997C5.12194 0.854248 5.12194 1.64574 4.63369 2.13375L2.13369 4.63375C1.88969 4.8775 1.56969 4.99975 1.24994 4.99975L1.24994 4.99975Z" transform="translate(110.3058 72.08775)" id="Shape" fill="#FF2929" stroke="none" />
    <path d="M1.24994 4.99975C0.930187 4.99975 0.60994 4.87775 0.366188 4.63375C-0.122063 4.1455 -0.122063 3.354 0.366188 2.866L2.86619 0.365997C3.35394 -0.122002 4.14594 -0.122002 4.63369 0.365997C5.12194 0.854248 5.12194 1.64574 4.63369 2.13375L2.13369 4.63375C1.88994 4.87775 1.56969 4.99975 1.24994 4.99975L1.24994 4.99975Z" transform="translate(37.67556 107.466)" id="Shape" fill="#FF9D33" stroke="none" />
    <path d="M6.24994 4.99975C5.93019 4.99975 5.60994 4.87775 5.36619 4.63375L3.74994 3.01775L2.13369 4.63375C1.64594 5.12175 0.853943 5.12175 0.366188 4.63375C-0.122063 4.1455 -0.122063 3.354 0.366188 2.866L2.86619 0.365997C3.35394 -0.122002 4.14594 -0.122002 4.63369 0.365997L7.13369 2.866C7.62194 3.35425 7.62194 4.14574 7.13369 4.63375C6.88994 4.87775 6.56994 4.99975 6.24994 4.99975L6.24994 4.99975Z" transform="translate(66.92432 106.046)" id="Shape" fill="#6C6CFF" stroke="none" />
    <path d="M6.24994 4.99975C5.93019 4.99975 5.60994 4.87775 5.36619 4.63375L3.74994 3.01775L2.13369 4.63375C1.64594 5.12175 0.853943 5.12175 0.366188 4.63375C-0.122063 4.1455 -0.122063 3.354 0.366188 2.866L2.86619 0.366C3.35394 -0.122 4.14594 -0.122 4.63369 0.366L7.13369 2.866C7.62194 3.35425 7.62194 4.14575 7.13369 4.63375C6.88969 4.87775 6.56969 4.99975 6.24994 4.99975L6.24994 4.99975Z" transform="translate(94.03331 5.875999)" id="Shape" fill="#FF9D33" stroke="none" />
  </g>
</svg>