<?xml version="1.0" encoding="utf-8"?>
<svg width="128px" height="128px" viewBox="0 0 128 128" version="1.1" xmlns:xlink="http://www.w3.org/1999/xlink" xmlns="http://www.w3.org/2000/svg">
  <desc>Created with Lunacy</desc>
  <defs>
    <linearGradient x1="0.82291013" y1="0.241032109" x2="0.06509768" y2="1.06947637" id="gradient_1">
      <stop offset="0.0023" stop-color="#FFC1C1" />
      <stop offset="0.992" stop-color="#FFE8DC" stop-opacity="0" />
    </linearGradient>
  </defs>
  <g id="growth">
    <path d="M0 0L128 0L128 128L0 128L0 0Z" id="Background" fill="none" stroke="none" />
    <path d="M104.961 46.9521C105.224 45.0126 105.354 43.0303 105.338 41.0151C105.165 18.5088 86.774 0.1436 64.2677 0.000846386C41.314 -0.144403 22.6608 18.4191 22.6608 41.3394C22.6608 43.2431 22.7897 45.1166 23.039 46.9518C24.0498 54.3886 20.5672 61.7376 14.236 65.7676C5.33325 71.4346 0 78.6526 0 86.5126C0 104.732 28.6538 119.501 64 119.501C99.3462 119.501 128 104.732 128 86.5126C128 78.6526 122.667 71.4346 113.764 65.7676C107.432 61.7376 103.95 54.3886 104.961 46.9521L104.961 46.9521Z" transform="translate(0 4.249402)" id="Shape" fill="url(#gradient_1)" stroke="none" />
    <path d="M82.416 50.753C80.8327 50.753 79.3077 51.0003 77.8752 51.4552L77.8752 26.2715L91.3485 26.2715C92.0387 26.2715 92.5985 25.7118 92.5985 25.0215L92.5985 19.409C92.5985 15.3105 89.3105 11.982 85.2287 11.9123C85.2775 11.9113 85.326 11.9085 85.375 11.9085L54.801 11.9085L54.801 2.5C54.801 1.11925 53.6818 0 52.301 0L2.5 0C1.11925 0 0 1.11925 0 2.5L0 38.7465C0 40.1272 1.11925 41.2465 2.5 41.2465L31.9103 41.2465L31.9103 66.7902L18.142 66.7902C17.4518 66.7902 16.892 67.35 16.892 68.0402L16.892 79.1712C16.892 83.3135 20.2498 86.6712 24.392 86.6712L70.357 86.6712C70.3522 86.6712 70.3473 86.671 70.3425 86.671L70.3753 86.671C74.2335 86.671 77.413 83.7545 77.828 80.0045C79.2743 80.4692 80.8153 80.7227 82.416 80.7227C90.692 80.7227 97.401 74.0137 97.401 65.7377C97.401 57.462 90.692 50.753 82.416 50.753L82.416 50.753Z" transform="translate(14.6745 29.0175)" id="Shape" fill="#2962FF" fill-opacity="0.2" stroke="none" />
    <path d="M20.3652 13.1125L20.3652 7.5C20.3652 3.35775 17.0075 0 12.8652 0L0 0L0 14.3625L19.1152 14.3625C19.8055 14.3625 20.3652 13.8027 20.3652 13.1125L20.3652 13.1125Z" transform="translate(86.90796 35.6765)" id="Shape" fill="#FF9D33" stroke="none" />
    <path d="M20.365 7.5L20.365 11.2125C20.365 7.0725 17.0075 3.7125 12.865 3.7125L0 3.7125L0 0L12.865 0C17.0075 0 20.365 3.3575 20.365 7.5L20.365 7.5Z" transform="translate(86.90875 35.6775)" id="Shape" fill="#FF8B00" stroke="none" />
    <path d="M53.465 0C49.3225 0 45.965 3.3575 45.965 7.5L45.965 67.2625C45.965 71.405 42.605 74.7625 38.465 74.7625L0 74.7625L0 7.5C0 3.3575 3.3575 3.8147e-06 7.5 3.8147e-06L53.465 0Z" transform="translate(46.58472 35.676)" id="Shape" fill="#EEEEEE" stroke="none" />
    <path d="M11.7978 13.0477L1.25 13.0477C0.559753 13.0477 0 12.488 0 11.7977L0 1.25C0 0.55975 0.559753 0 1.25 0L11.7978 0C12.488 0 13.0478 0.55975 13.0478 1.25L13.0478 11.7978C13.0478 12.488 12.488 13.0478 11.7978 13.0478L11.7978 13.0477Z" transform="translate(68.21301 41.244)" id="Shape" fill="#EBEBFF" stroke="none" />
    <path d="M0 9.12825C0 4.08686 4.08686 0 9.12825 0C14.1696 0 18.2565 4.08686 18.2565 9.12825C18.2565 14.1696 14.1696 18.2565 9.12825 18.2565C4.08686 18.2565 0 14.1696 0 9.12825Z" transform="translate(67.40027 82.62975)" id="Circle" fill="#EBEBFF" stroke="none" />
    <path d="M22.89 0L22.89 31.09C22.89 32.4725 21.7725 33.59 20.39 33.59L0 33.59L0 7.5C0 3.3575 3.3575 0 7.5 0L22.89 0Z" transform="translate(46.58472 35.676)" id="Shape" fill="#EBEBFF" stroke="none" />
    <path d="M45.965 12.3812L45.965 1.25C45.965 0.559753 45.4052 0 44.715 0L1.25 0C0.55975 0 0 0.559753 0 1.25L0 12.3812C0 16.5235 3.35775 19.8812 7.5 19.8812L53.465 19.8812C49.3225 19.8812 45.965 16.5238 45.965 12.3812L45.965 12.3812Z" transform="translate(31.5665 90.55775)" id="Shape" fill="#FF9800" stroke="none" />
    <path d="M52.301 41.2465L2.5 41.2465C1.11925 41.2465 0 40.1272 0 38.7465L0 2.5C0 1.11925 1.11925 0 2.5 0L52.301 0C53.6817 0 54.801 1.11925 54.801 2.5L54.801 38.7465C54.801 40.1272 53.6817 41.2465 52.301 41.2465L52.301 41.2465Z" transform="translate(14.6745 23.7675)" id="Shape" fill="#9AB5FD" stroke="none" />
    <path d="M5.009 11.7827L1.25 11.7827C0.55975 11.7827 0 11.223 0 10.5327L0 1.25C0 0.55975 0.55975 0 1.25 0L5.009 0C5.69925 0 6.259 0.55975 6.259 1.25L6.259 10.5327C6.259 11.223 5.6995 11.7827 5.009 11.7827L5.009 11.7827Z" transform="translate(21.32501 46.5195)" id="Shape" fill="#FF2929" stroke="none" />
    <path d="M5.009 19.3175L1.25 19.3175C0.55975 19.3175 0 18.7578 0 18.0675L0 1.25C0 0.55975 0.55975 0 1.25 0L5.009 0C5.69925 0 6.259 0.55975 6.259 1.25L6.259 18.0675C6.259 18.7577 5.6995 19.3175 5.009 19.3175L5.009 19.3175Z" transform="translate(33.07202 38.98475)" id="Shape" fill="#FF2929" stroke="none" />
    <path d="M5.009 37.4217L1.25 37.4217C0.55975 37.4217 0 36.862 0 36.1717L0 1.25C0 0.55975 0.55975 0 1.25 0L5.009 0C5.69925 0 6.259 0.55975 6.259 1.25L6.259 36.1715C6.259 36.862 5.6995 37.4218 5.009 37.4218L5.009 37.4217Z" transform="translate(44.819 20.8805)" id="Shape" fill="#FF2929" stroke="none" />
    <path d="M5.009 44.7412L1.25 44.7412C0.55975 44.7412 0 44.1815 0 43.4912L0 1.25C0 0.55975 0.55975 0 1.25 0L5.009 0C5.69925 0 6.259 0.55975 6.259 1.25L6.259 43.491C6.259 44.1815 5.69925 44.7413 5.009 44.7413L5.009 44.7412Z" transform="translate(56.56604 13.561)" id="Shape" fill="#FF2929" stroke="none" />
    <path d="M22.375 2.5L1.25 2.5C0.559502 2.5 0 1.94025 0 1.25C0 0.559753 0.559502 0 1.25 0L22.375 0C23.0655 0 23.625 0.559753 23.625 1.25C23.625 1.94025 23.0655 2.5 22.375 2.5L22.375 2.5Z" transform="translate(52.9035 77.5495)" id="Shape" fill="#AEC3FF" stroke="none" />
    <path d="M5.875 2.5L1.25 2.5C0.559502 2.5 0 1.94025 0 1.25C0 0.559753 0.559502 0 1.25 0L5.875 0C6.5655 0 7.125 0.559753 7.125 1.25C7.125 1.94025 6.5655 2.5 5.875 2.5L5.875 2.5Z" transform="translate(52.9035 70.78175)" id="Shape" fill="#FF9D33" stroke="none" />
    <path d="M31.375 2.5L1.25 2.5C0.559502 2.5 0 1.94025 0 1.25C0 0.559753 0.559502 0 1.25 0L31.375 0C32.0655 0 32.625 0.559753 32.625 1.25C32.625 1.94025 32.0655 2.5 31.375 2.5L31.375 2.5Z" transform="translate(52.9035 82.58075)" id="Shape" fill="#AEC3FF" stroke="none" />
    <path d="M0 4.15325C0 6.44325 1.863 8.3065 4.15325 8.3065C6.44325 8.3065 8.3065 6.44325 8.3065 4.15325C8.3065 1.86325 6.44325 0 4.15325 0C1.86325 0 0 1.86325 0 4.15325ZM2.5 4.153C2.5 3.2415 3.24175 2.49975 4.15325 2.49975C5.06475 2.49975 5.8065 3.2415 5.8065 4.153C5.8065 5.06451 5.06475 5.80626 4.15325 5.80626C3.24175 5.80626 2.5 5.06451 2.5 4.153Z" transform="translate(76.81476 46.663)" id="Shape" fill="#FF2929" fill-rule="evenodd" stroke="none" />
    <path d="M7.0565 5.40325C6.36626 5.40325 5.8065 4.84375 5.8065 4.15325C5.8065 3.24175 5.06475 2.5 4.15325 2.5C3.24175 2.5 2.5 3.24175 2.5 4.15325C2.5 4.84375 1.94025 5.40325 1.25 5.40325C0.559753 5.40325 0 4.84375 0 4.15325C0 1.86325 1.86325 0 4.15325 0C6.44325 0 8.3065 1.86325 8.3065 4.15325C8.3065 4.84375 7.74675 5.40325 7.0565 5.40325L7.0565 5.40325Z" transform="translate(76.81476 52.4695)" id="Shape" fill="#FF2929" stroke="none" />
    <path d="M0 1.3975C0 0.625682 0.625682 0 1.3975 0C2.16932 0 2.795 0.625682 2.795 1.3975C2.795 2.16932 2.16932 2.795 1.3975 2.795C0.625682 2.795 0 2.16932 0 1.3975Z" transform="translate(82.47375 60.711)" id="Circle" fill="#FF9D33" stroke="none" />
    <path d="M0 1.3975C0 0.625682 0.625682 0 1.3975 0C2.16932 0 2.795 0.625682 2.795 1.3975C2.795 2.16932 2.16932 2.795 1.3975 2.795C0.625682 2.795 0 2.16932 0 1.3975Z" transform="translate(19.92749 28.7695)" id="Circle" fill="#EEEEEE" stroke="none" />
    <path d="M0 1.3975C0 0.625682 0.625682 0 1.3975 0C2.16932 0 2.795 0.625682 2.795 1.3975C2.795 2.16932 2.16932 2.795 1.3975 2.795C0.625682 2.795 0 2.16932 0 1.3975Z" transform="translate(82.47375 64.93875)" id="Circle" fill="#FF9D33" stroke="none" />
    <path d="M2.795 1.3975C2.795 2.16925 2.16925 2.795 1.3975 2.795C0.625748 2.795 0 2.16925 0 1.3975C0 0.625748 0.625748 0 1.3975 0C2.16925 0 2.795 0.625504 2.795 1.3975" transform="translate(82.47375 69.16625)" id="Shape" fill="#FF9D33" stroke="none" />
    <path d="M0 14.985C0 6.70901 6.70901 0 14.985 0C23.261 0 29.97 6.70901 29.97 14.985C29.97 23.261 23.261 29.97 14.985 29.97C6.70901 29.97 0 23.261 0 14.985Z" transform="translate(82.10547 74.52025)" id="Circle" fill="#FF9D33" stroke="none" />
    <g id="Group" transform="translate(13.4245 12.311)">
      <path d="M2.5 0L6.259 0C7.63775 0 8.759 1.1215 8.75925 2.5L8.75925 11.7828C8.75925 13.1612 7.63775 14.2828 6.25925 14.2828L2.5 14.2828C1.1215 14.2828 0 13.1612 0 11.7828L0 2.5C0 1.1215 1.1215 0 2.5 0ZM2.5 2.5L2.5 11.7828L6.26075 11.7828L6.25925 2.5L2.5 2.5Z" transform="translate(6.650497 32.9585)" id="Shape" fill="#2962FF" fill-rule="evenodd" stroke="none" />
      <path d="M2.5 0L6.25925 0C7.63775 3.8147e-06 8.75925 1.12175 8.75925 2.5L8.75925 19.3178C8.75925 20.6963 7.63775 21.8178 6.25925 21.8178L2.5 21.8178C1.1215 21.8178 0 20.6963 0 19.3178L0 2.5C0 1.1215 1.1215 0 2.5 0ZM2.50026 2.5L2.50026 19.3178L6.26101 19.3178L6.25951 2.5L2.50026 2.5Z" transform="translate(18.39725 25.4235)" id="Shape" fill="#2962FF" fill-rule="evenodd" stroke="none" />
      <path d="M2.86619 0.366188L0.366188 2.86619C-0.122063 3.35419 -0.122063 4.14569 0.366188 4.63369C0.854439 5.12194 1.64569 5.12194 2.13394 4.63369L3.74994 3.01769L5.36594 4.63369C5.61019 4.87794 5.92994 4.99994 6.24994 4.99994C6.56994 4.99994 6.88969 4.87794 7.13394 4.63369C7.62219 4.14569 7.62219 3.35419 7.13394 2.86619L4.63394 0.366188C4.14569 -0.122063 3.35444 -0.122063 2.86619 0.366188L2.86619 0.366188Z" transform="translate(35.82106 83.53031)" id="Shape" fill="#2962FF" stroke="none" />
      <path d="M83.666 60.9593C82.5385 60.9593 81.4375 61.0752 80.3742 61.2952L80.3742 38.978L92.5985 38.978C93.977 38.978 95.0985 37.8565 95.0985 36.478L95.0985 30.8655C95.0985 26.1645 91.3712 22.319 86.717 22.1248C86.6857 22.1225 86.656 22.1155 86.6242 22.1155L57.301 22.1155L57.301 13.9565C57.301 11.8888 55.6187 10.2065 53.551 10.2065L50.6505 10.2065L50.6505 2.5C50.6505 1.1215 49.529 0 48.1505 0L44.3915 0C43.013 0 41.8915 1.1215 41.8915 2.5L41.8915 10.2065L38.9035 10.2065L38.9035 9.8195C38.9035 8.441 37.782 7.3195 36.4035 7.3195L32.6445 7.3195C31.266 7.3195 30.1445 8.441 30.1445 9.8195L30.1445 10.2065L3.75 10.2065C1.68225 10.2065 0 11.8888 0 13.9565L0 50.203C0 52.2708 1.68225 53.953 3.75 53.953L31.9095 53.953L31.9095 76.9967L19.392 76.9967C18.0135 76.9967 16.892 78.1182 16.892 79.4967L16.892 90.6277C16.892 95.4525 20.8172 99.3777 25.642 99.3777L71.6243 99.3777C75.621 99.3777 78.999 96.6832 80.0407 93.0157C81.2073 93.283 82.4195 93.429 83.666 93.429C92.618 93.429 99.901 86.146 99.901 77.1942C99.901 68.2422 92.618 60.9592 83.666 60.9593ZM44.3915 2.5L48.1505 2.5L48.152 44.7413L44.3915 44.7413L44.3915 2.5ZM36.4035 9.8195L32.6445 9.8195L32.6445 44.7413L36.405 44.7413L36.4035 9.8195ZM71.6243 96.878L71.607 96.878C68.1607 96.878 65.357 94.0743 65.357 90.628L65.357 79.497C65.357 78.1185 64.2355 76.997 62.857 76.997L41.6595 76.997C40.9692 76.997 40.4095 77.5565 40.4095 78.247C40.4095 78.9375 40.9692 79.497 41.6595 79.497L62.857 79.497L62.857 90.628C62.857 93.074 63.8657 95.2888 65.489 96.878L25.642 96.878C22.1957 96.878 19.392 94.0743 19.392 90.628L19.392 79.497L33.1595 79.497C33.8497 79.497 34.4095 78.9375 34.4095 78.247L34.4095 53.9533L53.551 53.9533C55.6187 53.9533 57.301 52.271 57.301 50.2033L57.301 31.8665C57.301 31.176 56.7412 30.6165 56.051 30.6165C55.3607 30.6165 54.801 31.176 54.801 31.8665L54.801 50.2033C54.801 50.8925 54.2402 51.4533 53.551 51.4533L3.75 51.4533C3.06075 51.4533 2.5 50.8925 2.5 50.2033L2.5 13.9565C2.5 13.2673 3.06075 12.7065 3.75 12.7065L30.1445 12.7065L30.1445 44.7413C30.1445 46.1198 31.266 47.2413 32.6445 47.2413L36.4035 47.2413C37.782 47.2413 38.9035 46.1198 38.9035 44.7413L38.9035 12.7065L41.8915 12.7065L41.8915 44.7413C41.8915 46.1198 43.013 47.2413 44.3915 47.2413L48.1505 47.2413C49.529 47.2413 50.6505 46.1198 50.6505 44.7413L50.6505 12.7065L53.551 12.7065C54.2402 12.7065 54.801 13.2673 54.801 13.9565L54.801 23.3665C54.801 24.057 55.3607 24.6165 56.051 24.6165C56.0542 24.6165 56.0575 24.6155 56.0607 24.6155L80.5065 24.6155C78.883 26.2048 77.8745 28.4195 77.8745 30.8655L77.8745 62.031C71.775 64.3688 67.4312 70.2823 67.4312 77.1943C67.4312 84.022 71.67 89.8745 77.6525 92.2695C76.9295 94.9218 74.5022 96.878 71.6243 96.878ZM92.5987 30.8655C92.5987 27.4655 89.8692 24.6928 86.4865 24.619C83.1037 24.6928 80.3742 27.4655 80.3745 30.8655L80.3745 36.478L92.5987 36.478L92.5987 30.8655ZM69.931 77.1945C69.931 84.7678 76.0925 90.9293 83.666 90.9293C91.2395 90.9293 97.401 84.768 97.401 77.1945C97.401 69.621 91.2395 63.4595 83.666 63.4595C76.0925 63.4595 69.931 69.6213 69.931 77.1945Z" id="Shape" fill="#2962FF" fill-rule="evenodd" stroke="none" />
    </g>
    <path d="M0 10.596C0 4.74399 4.74399 0 10.596 0C16.448 0 21.192 4.74399 21.192 10.596C21.192 16.448 16.448 21.192 10.596 21.192C4.74399 21.192 0 16.448 0 10.596Z" transform="translate(86.49451 78.90925)" id="Circle" fill="#EEEEEE" stroke="none" />
    <path d="M6.39625 11.4825L2.39675 11.4825C1.7065 11.4825 1.14675 10.923 1.14675 10.2325C1.14675 9.542 1.7065 8.9825 2.39675 8.9825L6.39625 8.9825C6.94525 8.9825 7.392 8.53575 7.392 7.98675C7.392 7.43774 6.94525 6.99125 6.39625 6.99125L3.49575 6.99125C1.56825 6.99125 0 5.42325 0 3.49575C0 1.568 1.56825 0 3.49575 0L7.49525 0C8.18549 0 8.74525 0.559502 8.74525 1.25C8.74525 1.9405 8.18549 2.5 7.49525 2.5L3.49575 2.5C2.94675 2.5 2.5 2.94675 2.5 3.49575C2.5 4.04475 2.94675 4.49125 3.49575 4.49125L6.39625 4.49125C8.32375 4.49125 9.892 6.05925 9.892 7.98675C9.892 9.9145 8.32375 11.4825 6.39625 11.4825L6.39625 11.4825Z" transform="translate(92.14453 83.76425)" id="Shape" fill="#FF9800" stroke="none" />
    <path d="M1.25 14.8275C0.559753 14.8275 0 14.268 0 13.5775L0 1.25C0 0.559502 0.559753 0 1.25 0C1.94025 0 2.5 0.559502 2.5 1.25L2.5 13.5775C2.5 14.268 1.9405 14.8275 1.25 14.8275L1.25 14.8275Z" transform="translate(95.84052 82.0915)" id="Shape" fill="#FF9800" stroke="none" />
    <path d="M1.25019 4.99994C0.930189 4.99994 0.610439 4.87794 0.366188 4.63369C-0.122063 4.14569 -0.122063 3.35419 0.366188 2.86619L2.86619 0.366188C3.35444 -0.122063 4.14569 -0.122063 4.63394 0.366188C5.12219 0.854187 5.12219 1.64569 4.63394 2.13369L2.13394 4.63369C1.88994 4.87794 1.57019 4.99994 1.25019 4.99994L1.25019 4.99994Z" transform="translate(20.07483 90.00831)" id="Shape" fill="#82A1F9" stroke="none" />
    <path d="M1.25019 4.99994C0.930191 4.99994 0.610443 4.87794 0.366188 4.63369C-0.122063 4.14569 -0.122063 3.35419 0.366188 2.86619L2.86619 0.366188C3.35444 -0.122063 4.14569 -0.122063 4.63394 0.366188C5.12219 0.854187 5.12219 1.64569 4.63394 2.13369L2.13394 4.63369C1.88994 4.87794 1.57019 4.99994 1.25019 4.99994L1.25019 4.99994Z" transform="translate(109.5753 56.22656)" id="Shape" fill="#FF9D33" stroke="none" />
    <path d="M1.25019 4.99994C0.930189 4.99994 0.610439 4.87794 0.366188 4.63369C-0.122063 4.14569 -0.122063 3.35419 0.366188 2.86619L2.86619 0.366187C3.35444 -0.122063 4.14569 -0.122063 4.63394 0.366187C5.12219 0.854187 5.12219 1.64569 4.63394 2.13369L2.13394 4.63369C1.89019 4.87794 1.57019 4.99994 1.25019 4.99994L1.25019 4.99994Z" transform="translate(25.0838 11.06106)" id="Shape" fill="#FF9800" stroke="none" />
    <path d="M6.24994 4.99994C5.92994 4.99994 5.61019 4.87794 5.36594 4.63369L3.74994 3.01769L2.13394 4.63369C1.64569 5.12194 0.854437 5.12194 0.366188 4.63369C-0.122063 4.14569 -0.122063 3.35419 0.366188 2.86619L2.86619 0.366188C3.35444 -0.122063 4.14569 -0.122063 4.63394 0.366188L7.13394 2.86619C7.62219 3.35419 7.62219 4.14569 7.13394 4.63369C6.88969 4.87769 6.56969 4.99994 6.24994 4.99994L6.24994 4.99994Z" transform="translate(28.55133 76.01531)" id="Shape" fill="#F79090" stroke="none" />
    <path d="M6.24994 4.99994C5.92994 4.99994 5.61019 4.87794 5.36594 4.63369L3.74994 3.01769L2.13394 4.63369C1.64569 5.12194 0.854439 5.12194 0.366188 4.63369C-0.122063 4.14569 -0.122063 3.35419 0.366188 2.86619L2.86619 0.366188C3.35444 -0.122063 4.14569 -0.122063 4.63394 0.366188L7.13394 2.86619C7.62219 3.35419 7.62219 4.14569 7.13394 4.63369C6.88969 4.87794 6.56994 4.99994 6.24994 4.99994L6.24994 4.99994Z" transform="translate(83.15881 20.06456)" id="Shape" fill="#82A1F9" stroke="none" />
  </g>
</svg>