<?xml version="1.0" encoding="utf-8"?>
<svg width="128px" height="128px" viewBox="0 0 128 128" version="1.1" xmlns:xlink="http://www.w3.org/1999/xlink" xmlns="http://www.w3.org/2000/svg">
  <desc>Created with Lunacy</desc>
  <defs>
    <linearGradient x1="0.5" y1="-0.136088252" x2="0.5" y2="1.402934" id="gradient_1">
      <stop offset="0.0023" stop-color="#FFB0CC" />
      <stop offset="0.992" stop-color="#FFE8DC" stop-opacity="0" />
    </linearGradient>
  </defs>
  <g id="search">
    <path d="M0 0L128 0L128 128L0 128L0 0Z" id="Background" fill="none" stroke="none" />
    <path d="M128 34.9497C128 15.6475 99.3463 0 64 0C28.6537 0 0 15.6475 0 34.9497C0 38.0697 0.74975 41.094 2.155 43.972C4.65675 49.0947 5.2805 54.929 4.03925 60.4935C3.53025 62.7753 3.2445 65.141 3.206 67.567C2.89725 87.02 18.6962 103.082 38.1515 103.082C52.7623 103.082 65.2773 94.1158 70.4977 81.3857C73.3647 74.3948 79.389 69.156 86.7865 67.6165C110.882 62.6022 128 49.8685 128 34.9497L128 34.9497Z" transform="translate(0 13.084)" id="Shape" fill="url(#gradient_1)" stroke="none" />
    <path d="M102.078 104.07L77.0212 79.0128C76.1247 78.1163 74.6712 78.1163 73.7747 79.0128L73.1269 79.6605L64.5004 71.034C67.5219 67.2953 69.4369 62.9595 70.2469 58.4633L75.2089 58.4633C76.0279 58.4633 76.6922 57.7993 76.6922 56.98L76.6922 31.5943C76.6922 30.2148 77.8104 29.0965 79.1899 29.0965C80.5694 29.0965 81.6877 30.2148 81.6877 31.5943L81.6877 56.98C81.6877 57.7993 82.3517 58.4633 83.1709 58.4633L89.9677 58.4633C90.7867 58.4633 91.451 57.7993 91.451 56.98L91.451 18.4173C91.451 17.598 90.7869 16.934 89.9677 16.934L68.4124 16.934C67.5934 16.934 66.9292 17.598 66.9292 18.4173L66.9292 39.455C65.7364 37.3998 64.2622 35.4635 62.5024 33.7038C56.9259 28.1273 49.5804 25.3998 42.2724 25.5175L42.2724 17.3693L46.3252 21.422C46.7734 21.8703 47.5002 21.8703 47.9484 21.422L55.0097 14.3608C55.4579 13.9125 55.4579 13.1858 55.0097 12.7375L42.6084 0.33625C42.3932 0.121 42.1012 0 41.7967 0L35.8732 0C35.4194 0 35.0004 0.264 34.8244 0.6825C33.6512 3.473 30.8907 5.43325 27.6727 5.43325C24.4547 5.43325 21.6942 3.473 20.5209 0.6825C20.3449 0.26425 19.9259 0 19.4722 0L13.5487 0C13.2442 0 12.9522 0.121 12.7369 0.33625L0.336187 12.7373C-0.112062 13.1855 -0.112062 13.9123 0.336187 14.3605L7.39744 21.4218C7.84569 21.87 8.57244 21.87 9.02069 21.4218L13.0734 17.369L13.0734 41.9293C13.0734 42.5633 13.5874 43.077 14.2212 43.077L16.7582 43.077C13.3887 51.4995 14.2784 61.2285 19.4279 68.9605L1.65344 68.9605C0.834437 68.9605 0.170188 69.6245 0.170188 70.4438L0.170188 94.0203C0.170188 94.8393 0.834188 95.5035 1.65344 95.5035L8.45019 95.5035C9.26919 95.5035 9.93344 94.8395 9.93344 94.0203L9.93344 83.6208C9.93344 82.2413 11.0517 81.123 12.4312 81.123C13.8107 81.123 14.9289 82.2413 14.9289 83.6208L14.9289 94.0203C14.9289 94.8393 15.5929 95.5035 16.4122 95.5035L23.2089 95.5035C24.0282 95.5035 24.6922 94.8395 24.6922 94.0203L24.6922 74.8565C34.9244 83.5083 49.9027 83.6413 60.2802 75.2543L68.9067 83.8808L68.2589 84.5285C67.3624 85.425 67.3624 86.8785 68.2589 87.775L93.3159 112.832C94.2124 113.729 95.6659 113.729 96.5624 112.832L102.078 107.316C102.975 106.42 102.975 104.967 102.078 104.07L102.078 104.07Z" transform="translate(15.12231 10.49524)" id="Shape" fill="#2962FF" fill-opacity="0.2" stroke="none" />
    <path d="M0 1.48326L0 40.0463C0 40.8655 0.664001 41.5295 1.48325 41.5295L8.28001 41.5295C9.09926 41.5295 9.76326 40.8655 9.76326 40.0463L9.76326 14.6603C9.76326 13.2807 10.8815 12.1625 12.261 12.1625C13.6405 12.1625 14.7588 13.2808 14.7588 14.6603L14.7588 40.046C14.7588 40.8652 15.4228 41.5293 16.242 41.5293L23.0388 41.5293C23.858 41.5293 24.522 40.8652 24.522 40.046L24.522 1.48325C24.522 0.663999 23.858 0 23.0388 0L1.48351 0C0.664009 0 1.52588e-05 0.664249 1.52588e-05 1.48325L0 1.48326Z" transform="translate(82.05151 22.18401)" id="Shape" fill="#95AEF3" stroke="none" />
    <g id="Group" transform="translate(82.05124 22.18401)">
      <path d="M24.5218 4.203L24.5218 1.48325C24.5218 0.664 23.8578 0 23.0385 0L1.48325 0C0.664001 0 0 0.664 0 1.48325L0 4.203L24.5218 4.203Z" id="Shape" fill="#D9D9FF" stroke="none" />
      <path d="M0 0L0 2.96625C0 3.7855 0.664001 4.4495 1.48325 4.4495L8.28001 4.4495C9.09926 4.4495 9.76326 3.7855 9.76326 2.96625L9.76326 0L0 0Z" transform="translate(0.0002593994 37.07975)" id="Shape" fill="#D9D9FF" stroke="none" />
      <path d="M0 0L0 2.96625C0 3.7855 0.664002 4.4495 1.48325 4.4495L8.28001 4.4495C9.09926 4.4495 9.76326 3.7855 9.76326 2.96625L9.76326 0L0 0Z" transform="translate(14.75876 37.07975)" id="Shape" fill="#D9D9FF" stroke="none" />
    </g>
    <path d="M0 0C0.0647508 2.523 1.43025 4.83375 3.6245 6.09875L5.87601 7.398L5.87601 1.90735e-06L0 0Z" transform="translate(100.696 26.38701)" id="Shape" fill="#2962FF" stroke="none" />
    <path d="M5.87601 0C5.81126 2.523 4.44575 4.83375 2.25151 6.09875L0 7.398L0 1.90735e-06L5.87601 0Z" transform="translate(82.05151 26.38701)" id="Shape" fill="#2962FF" stroke="none" />
    <path d="M1.70575 4.67625L0.296753 4.67625C0.133003 4.67625 0 4.5435 0 4.3795L0 0L2.00225 0L2.00225 4.3795C2.0025 4.5435 1.86975 4.67625 1.70575 4.67625L1.70575 4.67625Z" transform="translate(87.92725 22.18401)" id="Shape" fill="#95AEF3" stroke="none" />
    <path d="M1.70575 4.67625L0.296753 4.67625C0.133003 4.67625 0 4.5435 0 4.3795L0 0L2.00225 0L2.00225 4.3795C2.00225 4.5435 1.8695 4.67625 1.70575 4.67625L1.70575 4.67625Z" transform="translate(98.69373 22.18401)" id="Shape" fill="#95AEF3" stroke="none" />
    <path d="M3.8147e-06 1.48325L3.8147e-06 25.0598C3.8147e-06 25.879 0.664003 26.543 1.48325 26.543L8.28 26.543C9.09925 26.543 9.76325 25.879 9.76325 25.0598L9.76325 14.6603C9.76325 13.2808 10.8815 12.1625 12.261 12.1625C13.6405 12.1625 14.7588 13.2808 14.7588 14.6603L14.7588 25.0598C14.7588 25.879 15.4228 26.543 16.242 26.543L23.0388 26.543C23.858 26.543 24.522 25.879 24.522 25.0598L24.522 1.48325C24.522 0.664001 23.858 0 23.0388 0L1.48325 0C0.664249 0.00025177 0 0.664253 0 1.48325L3.8147e-06 1.48325Z" transform="translate(15.29251 74.21075)" id="Shape" fill="#FB8A8A" stroke="none" />
    <path d="M24.5217 4.203L24.5217 1.48325C24.5217 0.664001 23.8577 0 23.0385 0L1.48325 0C0.664 0 0 0.664001 0 1.48325L0 4.203L24.5217 4.203Z" transform="translate(15.29251 74.211)" id="Shape" fill="#FFD9D9" stroke="none" />
    <path d="M0 0L0 2.96625C0 3.7855 0.664 4.4495 1.48325 4.4495L8.28 4.4495C9.09925 4.4495 9.76325 3.7855 9.76325 2.96625L9.76325 0L0 0Z" transform="translate(15.29251 96.30426)" id="Shape" fill="#FFD9D9" stroke="none" />
    <path d="M0 0L0 2.96625C0 3.7855 0.664 4.4495 1.48325 4.4495L8.28 4.4495C9.09925 4.4495 9.76325 3.7855 9.76325 2.96625L9.76325 0L0 0Z" transform="translate(30.05099 96.30426)" id="Shape" fill="#FFD9D9" stroke="none" />
    <path d="M0 7.62939e-06C0.0647507 2.52301 1.43025 4.83376 3.6245 6.09875L5.876 7.398L5.876 0L0 7.62939e-06Z" transform="translate(33.93726 78.414)" id="Shape" fill="#FF2929" stroke="none" />
    <path d="M5.876 7.62939e-06C5.81125 2.52301 4.44575 4.83376 2.2515 6.09875L0 7.398L0 0L5.876 7.62939e-06Z" transform="translate(15.29276 78.414)" id="Shape" fill="#FF2929" stroke="none" />
    <path d="M1.70575 4.67625L0.296749 4.67625C0.132999 4.67625 0 4.5435 0 4.3795L0 0L2.00225 0L2.00225 4.3795C2.0025 4.54325 1.8695 4.67625 1.70575 4.67625L1.70575 4.67625Z" transform="translate(21.16849 74.211)" id="Shape" fill="#FF9494" stroke="none" />
    <path d="M1.70575 4.67625L0.296749 4.67625C0.132999 4.67625 0 4.5435 0 4.3795L0 0L2.00225 0L2.00225 4.3795C2.0025 4.54325 1.86975 4.67625 1.70575 4.67625L1.70575 4.67625Z" transform="translate(31.93475 74.211)" id="Shape" fill="#FF9494" stroke="none" />
    <path d="M55.0097 14.3605L47.9482 21.422C47.4999 21.8703 46.7732 21.8703 46.3249 21.422L42.2722 17.3692L42.2722 41.9295C42.2722 42.5635 41.7582 43.0773 41.1244 43.0773L14.2214 43.0773C13.5874 43.0773 13.0737 42.5633 13.0737 41.9295L13.0737 17.3692L9.02094 21.422C8.57269 21.8703 7.84594 21.8703 7.39769 21.422L0.336187 14.3605C-0.112062 13.9122 -0.112062 13.1855 0.336187 12.7372L12.7374 0.336C12.9527 0.121 13.2447 0 13.5492 0L19.4727 0C19.9264 0 20.3454 0.264 20.5214 0.6825C21.6947 3.473 24.4552 5.43325 27.6732 5.43325C30.8912 5.43325 33.6517 3.473 34.8249 0.6825C35.0009 0.264 35.4199 0 35.8737 0L41.7972 0C42.1017 0 42.3934 0.121 42.6089 0.33625L55.0102 12.7375C55.4579 13.1855 55.4579 13.9122 55.0097 14.3605L55.0097 14.3605Z" transform="translate(15.12231 5.25)" id="Shape" fill="#FF2929" stroke="none" />
    <path d="M0 0L5.96626 0L5.96627 17.4397L0 17.4397L0 0Z" transform="matrix(0.707 -0.707 0.707 0.707 73.15738 78.27563)" id="Shape" fill="#5E85F0" stroke="none" />
    <path d="M4.22051 0L8.86951 4.649C8.25101 5.41676 7.58376 6.15875 6.87125 6.87125C6.15875 7.58376 5.41676 8.25101 4.649 8.86951L0 4.22051L4.22051 0Z" transform="translate(73.18201 74.06375)" id="Shape" fill="#103EBD" stroke="none" />
    <path d="M0 27.968C0 12.5217 12.5217 0 27.968 0C43.4143 0 55.936 12.5217 55.936 27.968C55.936 43.4143 43.4143 55.936 27.968 55.936C12.5217 55.936 0 43.4143 0 27.968Z" transform="translate(29.88049 30.76225)" id="Circle" fill="#FF9800" stroke="none" />
    <path d="M0 21.531C0 9.63976 9.63976 0 21.531 0C33.4222 0 43.062 9.63976 43.062 21.531C43.062 33.4222 33.4222 43.062 21.531 43.062C9.63976 43.062 0 33.4222 0 21.531Z" transform="translate(36.3175 37.19925)" id="Circle" fill="#D9D9FF" stroke="none" />
    <path d="M31.0542 6.8735L6.87375 31.0515C4.5035 30.7417 2.178 30.035 0 28.9335L28.9335 0C30.0377 2.17775 30.7447 4.50325 31.0542 6.8735L31.0542 6.8735Z" transform="translate(48.13675 49.0195)" id="Shape" fill="#EBEBFF" stroke="none" />
    <path d="M36.7213 6.9435L6.946 36.719C5.69475 35.9123 4.51075 34.958 3.41675 33.864C2.058 32.5052 0.9165 31.009 0 29.4205L29.4205 0C31.009 0.916752 32.5078 2.058 33.8665 3.41675C34.9605 4.51075 35.912 5.69475 36.7213 6.9435L36.7213 6.9435Z" transform="translate(39.20773 40.09)" id="Shape" fill="#EBEBFF" stroke="none" />
    <path d="M28.8562 1.28001L28.8562 27.8808C28.8562 28.6725 28.2142 29.3095 27.425 29.3095L1.44873 29.3095C-1.53102 21.6015 0.0849838 12.5248 6.30423 6.30551C12.4012 0.208256 21.2505 -1.46749 28.8562 1.28001L28.8562 1.28001Z" transform="translate(36.31775 37.20148)" id="Shape" fill="#FF6C6C" stroke="none" />
    <path d="M34.4919 28.9761L28.9759 34.4921C28.0794 35.3886 26.6259 35.3886 25.7294 34.4921L0.672371 9.43487C-0.224129 8.53837 -0.224129 7.08487 0.672371 6.18837L6.18837 0.672371C7.08487 -0.224129 8.53837 -0.224129 9.43487 0.672371L34.4919 25.7296C35.3884 26.6261 35.3884 28.0796 34.4919 28.9761L34.4919 28.9761Z" transform="translate(82.70862 83.59036)" id="Shape" fill="#FF9D33" stroke="none" />
    <path d="M0 0L12.3868 0L12.3868 5.72684L0 5.72684L0 0Z" transform="matrix(0.707 -0.707 0.707 0.707 87.23239 96.89413)" id="Shape" fill="#FFC599" stroke="none" />
    <path d="M22.7807 0C28.8657 0 34.5865 2.3695 38.8892 6.67225C43.192 10.975 45.5617 16.6957 45.5617 22.7807C45.5617 28.8657 43.192 34.5867 38.8892 38.8892C34.5865 43.1917 28.8657 45.5615 22.7807 45.5615C16.6957 45.5615 10.9747 43.192 6.67225 38.8892C2.36975 34.5865 0 28.8657 0 22.7807C0 16.6957 2.3695 10.9747 6.67225 6.67225C10.975 2.36975 16.6957 0 22.7807 0ZM22.7805 43.0617C28.1977 43.0617 33.2907 40.952 37.1212 37.1215C40.952 33.2907 43.0615 28.198 43.0615 22.7807C43.0615 17.3635 40.952 12.2705 37.1212 8.43999C33.2907 4.60924 28.1977 2.49974 22.7805 2.49974C17.3632 2.49974 12.2705 4.60949 8.43974 8.43999C4.60899 12.2705 2.49949 17.3635 2.49949 22.7807C2.49949 28.198 4.60924 33.2907 8.43974 37.1215C12.2702 40.9522 17.3632 43.0617 22.7805 43.0617Z" transform="translate(35.06775 35.94949)" id="Shape" fill="#2962FF" fill-rule="evenodd" stroke="none" />
    <path d="M85.1643 85.3892L104.211 104.436C105.593 105.818 105.593 108.068 104.211 109.45L98.6955 114.966C98.0042 115.657 97.096 116.003 96.1882 116.003C95.28 116.003 94.3722 115.658 93.681 114.966L68.624 89.9095C67.3215 88.6067 67.2475 86.5347 68.3997 85.1432L61.4235 78.167C56.267 82.011 50.1215 83.9345 43.975 83.9345C36.493 83.9345 29.011 81.0865 23.3147 75.3905C22.0825 74.1582 20.9842 72.8422 20.0185 71.461L2.90225 71.461C2.7735 71.461 2.669 71.5658 2.669 71.6943L2.669 95.271C2.669 95.3998 2.77375 95.5042 2.90225 95.5042L9.69925 95.5042C9.828 95.5042 9.9325 95.3995 9.9325 95.271L9.9325 84.8715C9.9325 82.805 11.6137 81.1238 13.6802 81.1238C15.7467 81.1238 17.428 82.805 17.428 84.8715L17.428 95.271C17.428 95.3998 17.5327 95.5042 17.6612 95.5042L24.458 95.5042C24.5867 95.5042 24.6912 95.3995 24.6912 95.271L24.6912 84.7615C24.6912 84.0713 25.251 83.5115 25.9412 83.5115C26.6315 83.5115 27.1912 84.0713 27.1912 84.7615L27.1912 95.271C27.1912 96.7783 25.965 98.0043 24.458 98.0043L17.6612 98.0043C16.154 98.0043 14.928 96.778 14.928 95.271L14.928 84.8715C14.928 84.1835 14.3682 83.6237 13.6802 83.6237C12.9922 83.6237 12.4325 84.1835 12.4325 84.8715L12.4325 95.271C12.4325 96.7783 11.2062 98.0043 9.69925 98.0043L2.90225 98.0043C1.395 98.0043 0.169 96.778 0.169 95.271L0.169 71.6943C0.169 70.187 1.39525 68.961 2.90225 68.961L18.453 68.961C14.4522 61.7795 13.713 53.256 16.2323 45.5775L15.4703 45.5775C14.1483 45.5775 13.0725 44.502 13.0725 43.1797L13.0725 21.6373L11.1538 23.556C10.2187 24.4908 8.69775 24.4908 7.76275 23.556L0.70125 16.4945C-0.23375 15.5597 -0.23375 14.0385 0.70125 13.1035L13.1022 0.70225C13.5555 0.24925 14.1575 0 14.7977 0L20.7212 0C21.6885 0 22.5525 0.56825 22.9222 1.448C23.9403 3.869 26.295 5.43325 28.9217 5.43325C31.5485 5.43325 33.9035 3.869 34.9212 1.448C35.291 0.56825 36.155 0 37.1222 0L43.0457 0C43.686 0 44.288 0.24925 44.741 0.702L57.1422 13.1033C58.0772 14.038 58.0772 15.5593 57.1422 16.4943L50.0808 23.5558C49.1458 24.4905 47.6248 24.4905 46.6898 23.5558L44.771 21.637L44.771 25.5375C51.9855 25.7325 59.141 28.576 64.635 34.07C65.4595 34.8947 66.2225 35.7577 66.9277 36.6517L66.9277 19.6672C66.9277 18.16 68.154 16.934 69.661 16.934L91.2163 16.934C92.7233 16.934 93.9495 18.1602 93.9495 19.6672L93.9495 58.23C93.9495 59.7372 92.7233 60.9632 91.2163 60.9632L84.4195 60.9632C82.9122 60.9632 81.6862 59.737 81.6862 58.23L81.6862 32.8442C81.6862 32.1563 81.1265 31.5965 80.4385 31.5965C79.7505 31.5965 79.1908 32.1563 79.1908 32.8442L79.1908 58.23C79.1908 59.7372 77.9645 60.9632 76.4575 60.9632L72.5112 60.9632C71.6485 64.9435 69.9477 68.7762 67.4112 72.1785L74.3875 79.1545C75.779 78.0022 77.851 78.0762 79.1537 79.3787C79.642 79.8668 79.642 80.6582 79.1537 81.1465C78.6655 81.6345 77.8742 81.6345 77.386 81.1465C76.9782 80.7387 76.315 80.7387 75.9072 81.1465L70.3915 86.6625C69.9837 87.0702 69.9837 87.7337 70.3915 88.1415L95.4485 113.198C95.8562 113.606 96.5195 113.606 96.9272 113.198L102.443 107.682C102.851 107.275 102.851 106.611 102.443 106.204L83.3965 87.157C82.9082 86.669 82.9082 85.8775 83.3965 85.3892C83.8847 84.9012 84.676 84.9012 85.1643 85.3892ZM15.5725 18.6192L15.5725 43.0772L17.1805 43.0772C18.599 39.8047 20.6437 36.7407 23.3147 34.0697C28.5785 28.8062 35.3672 25.9767 42.2715 25.577L42.2715 18.6192C42.2715 18.1135 42.576 17.6577 43.043 17.4642C43.5103 17.271 44.0478 17.3777 44.4053 17.7352L48.3855 21.7157L55.3022 14.799L43.0035 2.49999L37.1905 2.49999C35.763 5.80348 32.5272 7.93324 28.9217 7.93324C25.3163 7.93324 22.0805 5.80348 20.653 2.49998L14.8403 2.49998L2.54125 14.799L9.4585 21.7157L13.4388 17.7352C13.796 17.3777 14.334 17.271 14.801 17.4642C15.268 17.6577 15.5725 18.1137 15.5725 18.6192ZM69.428 19.6672C69.428 19.5387 69.5325 19.434 69.6612 19.434L91.2165 19.434C91.3453 19.434 91.4498 19.5385 91.4498 19.6672L91.4498 58.2302C91.4498 58.3587 91.3453 58.4635 91.2165 58.4635L84.4197 58.4635C84.2912 58.4635 84.1865 58.359 84.1865 58.2302L84.1865 32.8442C84.1865 30.7777 82.5052 29.0965 80.4387 29.0965C78.3722 29.0965 76.691 30.7777 76.691 32.8442L76.691 58.23C76.691 58.3585 76.5865 58.4632 76.4577 58.4632L72.9397 58.4632C73.727 52.3002 72.5567 45.9335 69.4277 40.3795L69.4277 19.6672L69.428 19.6672ZM25.0825 73.6227C14.6653 63.2055 14.6653 46.2552 25.0825 35.8377C30.2918 30.6285 37.1323 28.0247 43.975 28.0247C50.816 28.0247 57.6595 30.6297 62.8675 35.8377C73.2848 46.255 73.2848 63.2052 62.8675 73.6227C52.45 84.04 35.5 84.04 25.0825 73.6227ZM65.8242 74.1267C65.4422 74.5565 65.047 74.9787 64.6352 75.3905C64.2235 75.8022 63.8012 76.1975 63.3717 76.5795L70.1555 83.3632L72.6082 80.9105L65.8242 74.1267Z" transform="translate(13.8735 4)" id="Shape" fill="#2962FF" fill-rule="evenodd" stroke="none" />
    <path d="M8.742 5.32825L1.24875 5.32825C0.558998 5.32825 0 4.769 0 4.0795L0 1.24875C0 0.558998 0.55925 0 1.24875 0L8.742 0C9.43175 0 9.99075 0.55925 9.99075 1.24875L9.99075 4.0795C9.99075 4.76925 9.43175 5.32825 8.742 5.32825L8.742 5.32825Z" transform="translate(49.09702 55.92474)" id="Shape" fill="#4D4DFF" stroke="none" />
    <path d="M5.595 0L5.595 4.16625C5.595 4.958 4.953 5.595 4.16375 5.595L0 5.595L5.595 0Z" transform="translate(59.57901 60.916)" id="Shape" fill="#FF9494" stroke="none" />
    <path d="M22.9665 0L22.9665 14.2445L14.2445 22.9665L0 22.9665L22.9665 0Z" transform="translate(42.20752 43.54425)" id="Shape" fill="#FF9494" stroke="none" />
    <path d="M9.99075 1.24875L9.99075 4.07875C9.99075 4.768 9.43125 5.3275 8.742 5.3275L1.24875 5.3275C0.559498 5.3275 0 4.768 0 4.07875L0 3.6965L3.6965 0L8.742 0C9.43125 0 9.99075 0.559502 9.99075 1.24875L9.99075 1.24875Z" transform="translate(49.09625 55.92551)" id="Shape" fill="#6C6CFF" stroke="none" />
    <path d="M1.25019 4.9975C0.930191 4.9975 0.610443 4.8755 0.366188 4.6315C-0.122063 4.14325 -0.122063 3.35175 0.366188 2.86375L2.86394 0.365997C3.35194 -0.122002 4.14344 -0.122002 4.63169 0.365997C5.11994 0.854248 5.11994 1.64574 4.63169 2.13375L2.13394 4.6315C1.89019 4.8755 1.57019 4.9975 1.25019 4.9975L1.25019 4.9975Z" transform="translate(105.4583 77.76251)" id="Shape" fill="#FF9D33" stroke="none" />
    <path d="M1.25019 4.9975C0.930187 4.9975 0.610435 4.8755 0.366188 4.6315C-0.122063 4.14325 -0.122063 3.35175 0.366188 2.86375L2.86394 0.365997C3.35219 -0.122002 4.14344 -0.122002 4.63169 0.365997C5.11994 0.854248 5.11994 1.64574 4.63169 2.13375L2.13394 4.6315C1.88994 4.87525 1.56994 4.9975 1.25019 4.9975L1.25019 4.9975Z" transform="translate(52.84232 98.19925)" id="Shape" fill="#FF9D33" stroke="none" />
    <path d="M1.25019 4.99741C0.930189 4.99741 0.610439 4.8754 0.366188 4.6314C-0.122063 4.14315 -0.122063 3.35165 0.366188 2.86366L2.86394 0.365906C3.35244 -0.122093 4.14369 -0.121845 4.63169 0.365906C5.11994 0.854156 5.11994 1.64566 4.63169 2.13366L2.13394 4.6314C1.88994 4.8754 1.56994 4.99741 1.25019 4.99741L1.25019 4.99741Z" transform="translate(17.67508 34.64259)" id="Shape" fill="#6C6CFF" stroke="none" />
    <path d="M6.24569 4.9975C5.92569 4.9975 5.60594 4.8755 5.36169 4.6315L3.74794 3.0175L2.13394 4.6315C1.64569 5.1195 0.854437 5.1195 0.366187 4.6315C-0.122063 4.14325 -0.122063 3.35175 0.366187 2.86375L2.86394 0.366001C3.09844 0.1315 3.41619 0 3.74794 0C4.07944 0 4.39744 0.131748 4.63194 0.366001L7.12969 2.86375C7.61794 3.352 7.61794 4.1435 7.12969 4.6315C6.88544 4.8755 6.56544 4.9975 6.24569 4.9975L6.24569 4.9975Z" transform="translate(8.876831 44.24651)" id="Shape" fill="#FB8A8A" stroke="none" />
    <path d="M6.24569 4.99741C5.92569 4.99741 5.60594 4.87541 5.36169 4.63141L3.74794 3.01741L2.13394 4.63141C1.64569 5.11966 0.854439 5.11941 0.366188 4.63141C-0.122063 4.14316 -0.122063 3.35166 0.366188 2.86366L2.86394 0.365907C3.35244 -0.122093 4.14368 -0.121843 4.63169 0.365907L7.12944 2.86366C7.61769 3.35191 7.61769 4.14341 7.12944 4.63141C6.88544 4.87516 6.56569 4.99741 6.24569 4.99741L6.24569 4.99741Z" transform="translate(81.24158 9.985596)" id="Shape" fill="#FB8A8A" stroke="none" />
  </g>
</svg>