<?xml version="1.0" encoding="utf-8"?>
<svg width="20px" height="20px" viewBox="0 0 20 20" version="1.1" xmlns:xlink="http://www.w3.org/1999/xlink" xmlns="http://www.w3.org/2000/svg">
  <path d="M14 2L14 0L17.807 0C18.91 0 20 0.894 20 1.997L20 20L11.804 20C10.7 20 9.804 19.105 9.804 18C9.804 19.105 8.909 20 7.804 20L0 20L0 1.997C0 0.894 0.699 0 1.802 0L6 0L6 2L2.804 2C2.252 2 2 2.448 2 3L2 12L18 12L18 3C18 2.448 17.357 2 16.804 2L14 2ZM8 16.995C8 17.55 7.354 18 6.8 18L2 18L2 14L8 14L8 16.995ZM12.809 18L18 18L18 14L12 14L12 16.995C12 17.55 12.254 18 12.809 18Z" id="glasses-[#805]" fill="#FF2929" fill-rule="evenodd" stroke="none" />
</svg>