<?xml version="1.0" encoding="utf-8"?>
<!-- Generator: Adobe Illustrator 16.0.0, SVG Export Plug-In . SVG Version: 6.00 Build 0)  -->
<!DOCTYPE svg PUBLIC "-//W3C//DTD SVG 1.1//EN" "http://www.w3.org/Graphics/SVG/1.1/DTD/svg11.dtd">
<svg version="1.1" id="Layer_1" xmlns="http://www.w3.org/2000/svg" xmlns:xlink="http://www.w3.org/1999/xlink" x="0px" y="0px"
	 width="25px" height="28px" viewBox="-0.906 -0.875 25 28" enable-background="new -0.906 -0.875 25 28" xml:space="preserve">
<g>
	<path fill="#2190F1" d="M22.364,7.934c-2.513,0.858-4.186,2.407-5.27,3.885c0.184,0.823,0.296,1.718,0.296,2.736
		c0,2.416-0.512,4.29-1.536,5.614c-1.024,1.327-2.459,1.99-4.306,1.99c-1.847,0-3.283-0.654-4.306-1.965
		c-1.024-1.31-1.537-3.189-1.537-5.64c0-2.418,0.521-4.29,1.562-5.616c1.041-1.327,2.467-1.989,4.282-1.989
		c0.69,0,1.309,0.126,1.886,0.319c1.577-1.713,1.987-3.516,2.016-4.85c-1.203-0.337-2.505-0.508-3.901-0.508
		c-1.847,0-3.525,0.294-5.037,0.882C5,3.379,3.699,4.219,2.608,5.31C1.518,6.401,0.678,7.728,0.09,9.29
		c-0.587,1.562-0.881,3.316-0.881,5.264c0,1.981,0.293,3.751,0.881,5.313c0.588,1.563,1.418,2.887,2.494,3.979
		c1.074,1.09,2.368,1.931,3.879,2.519c1.51,0.587,3.206,0.883,5.088,0.883c1.879,0,3.575-0.296,5.087-0.883
		c1.51-0.588,2.802-1.435,3.877-2.545c1.074-1.107,1.904-2.442,2.494-4.003c0.585-1.562,0.882-3.314,0.882-5.263
		c0-1.914-0.297-3.652-0.882-5.214C22.82,8.845,22.602,8.383,22.364,7.934z"/>
	<g>
		<path fill="#121314" d="M20.448,6.004c-1.896,0-3.438-1.542-3.438-3.441c0-1.896,1.543-3.438,3.438-3.438
			c1.897,0,3.442,1.543,3.442,3.438C23.891,4.462,22.346,6.004,20.448,6.004z M20.448,0.524c-1.124,0-2.038,0.915-2.038,2.039
			c0,1.126,0.914,2.042,2.038,2.042c1.127,0,2.041-0.916,2.041-2.042C22.489,1.439,21.575,0.524,20.448,0.524z"/>
	</g>
</g>
</svg>
