<?xml version="1.0" encoding="utf-8"?>
<!DOCTYPE svg PUBLIC "-//W3C//DTD SVG 1.1//EN" "http://www.w3.org/Graphics/SVG/1.1/DTD/svg11.dtd">
<svg version="1.1" xmlns="http://www.w3.org/2000/svg" xmlns:xlink="http://www.w3.org/1999/xlink" x="0px" y="0px"
	 width="120px" height="24px" viewBox="0 0 120 24" enable-background="new 0 0 120 24" xml:space="preserve">
<g>
	<path fill="#2190F1" d="M29.883,9.664c-0.713,0-1.373,0.12-1.979,0.357c-0.606,0.237-1.129,0.583-1.569,1.034
		c-0.44,0.452-0.791,1.01-1.052,1.676s-0.392,1.438-0.392,2.318c0,1.76,0.464,3.085,1.391,3.976
		c0.927,0.892,2.127,1.338,3.602,1.338c0.832,0,1.551-0.113,2.158-0.34c0.606-0.224,1.146-0.468,1.622-0.73
		c0.333,0.238,0.6,0.512,0.802,0.82c0.202,0.309,0.303,0.666,0.303,1.069c0,0.809-0.476,1.475-1.426,1.998
		c-0.951,0.523-2.235,0.785-3.852,0.785c-1.354,0-2.597-0.184-3.726-0.554c-1.129-0.367-2.099-0.927-2.907-1.675
		c-0.809-0.749-1.433-1.681-1.872-2.799c-0.44-1.117-0.66-2.413-0.66-3.887c0-1.498,0.238-2.811,0.714-3.94
		c0.475-1.129,1.123-2.068,1.943-2.817c0.82-0.75,1.777-1.308,2.871-1.676c1.093-0.369,2.258-0.553,3.495-0.553
		c1.593,0,2.865,0.28,3.816,0.838c0.951,0.559,1.426,1.243,1.426,2.051c0,0.38-0.101,0.726-0.303,1.034
		c-0.203,0.309-0.435,0.559-0.696,0.749c-0.476-0.261-1.004-0.505-1.587-0.731C31.422,9.777,30.715,9.664,29.883,9.664z"/>
	<path fill="#2190F1" d="M43.63,19.863c0.463,0.333,1.111,0.5,1.943,0.5c0.404,0,0.814-0.047,1.23-0.142
		c0.416-0.095,0.79-0.215,1.123-0.358c0.19,0.191,0.351,0.423,0.482,0.696c0.13,0.273,0.196,0.588,0.196,0.944
		c0,0.714-0.321,1.302-0.963,1.765s-1.676,0.696-3.103,0.696c-1.878,0-3.358-0.422-4.439-1.266c-1.082-0.843-1.623-2.24-1.623-4.19
		V2.14c0.19-0.047,0.469-0.107,0.838-0.178c0.368-0.071,0.767-0.107,1.195-0.107c0.832,0,1.444,0.155,1.836,0.463
		c0.392,0.31,0.588,0.856,0.588,1.641v2.959h5.242c0.119,0.191,0.226,0.44,0.321,0.749c0.095,0.31,0.143,0.642,0.143,0.999
		c0,0.619-0.143,1.07-0.428,1.355c-0.286,0.285-0.666,0.428-1.141,0.428h-4.137v7.774C42.935,18.984,43.167,19.531,43.63,19.863z"/>
	<path fill="#2190F1" d="M68.47,15.013c0,1.379-0.209,2.621-0.625,3.727c-0.416,1.105-1.004,2.05-1.765,2.834
		c-0.762,0.785-1.676,1.385-2.746,1.801C62.264,23.792,61.063,24,59.732,24c-1.332,0-2.532-0.208-3.602-0.624
		s-1.986-1.01-2.746-1.784c-0.761-0.772-1.35-1.711-1.765-2.817c-0.416-1.105-0.624-2.358-0.624-3.762
		c0-1.378,0.208-2.621,0.624-3.727c0.416-1.105,1.01-2.044,1.783-2.817c0.772-0.772,1.694-1.366,2.764-1.783
		c1.07-0.416,2.258-0.624,3.566-0.624c1.307,0,2.496,0.208,3.565,0.624c1.07,0.417,1.991,1.016,2.764,1.801
		c0.772,0.785,1.367,1.729,1.783,2.835C68.261,12.428,68.47,13.658,68.47,15.013z M59.732,9.629c-1.285,0-2.295,0.47-3.031,1.408
		c-0.737,0.939-1.106,2.265-1.106,3.976c0,1.736,0.362,3.067,1.088,3.994c0.725,0.927,1.741,1.391,3.049,1.391
		c1.307,0,2.323-0.47,3.049-1.409c0.725-0.939,1.087-2.265,1.087-3.977s-0.37-3.037-1.105-3.976
		C62.026,10.099,61.016,9.629,59.732,9.629z"/>
	<path fill="#2190F1" d="M16.394,10.327c-1.778,0.607-2.964,1.704-3.73,2.751c0.129,0.582,0.209,1.217,0.209,1.936
		c0,1.711-0.362,3.038-1.087,3.977c-0.726,0.938-1.742,1.409-3.049,1.409s-2.324-0.464-3.049-1.391
		C4.962,18.081,4.6,16.75,4.6,15.013c0-1.711,0.369-3.037,1.106-3.976c0.737-0.938,1.747-1.408,3.031-1.408
		c0.489,0,0.926,0.09,1.336,0.226c1.116-1.212,1.408-2.489,1.427-3.434c-0.853-0.238-1.774-0.358-2.763-0.358
		c-1.308,0-2.496,0.208-3.566,0.624c-1.07,0.417-1.992,1.011-2.764,1.783c-0.773,0.773-1.367,1.712-1.783,2.817S0,13.635,0,15.013
		c0,1.404,0.208,2.657,0.624,3.762c0.416,1.105,1.004,2.045,1.766,2.817c0.76,0.774,1.676,1.368,2.746,1.784S7.405,24,8.736,24
		s2.532-0.208,3.602-0.624s1.984-1.017,2.746-1.801s1.349-1.729,1.766-2.834c0.416-1.106,0.624-2.348,0.624-3.727
		c0-1.355-0.208-2.585-0.624-3.69C16.718,10.972,16.562,10.645,16.394,10.327z"/>
</g>
<g>
	<path fill="#E4E9EC" d="M72.32,2.104c0-0.499,0.172-0.921,0.518-1.266c0.343-0.344,0.79-0.517,1.337-0.517
		c0.546,0,0.985,0.173,1.319,0.517c0.333,0.345,0.499,0.767,0.499,1.266c0,0.5-0.166,0.922-0.499,1.267
		c-0.334,0.345-0.773,0.517-1.319,0.517c-0.547,0-0.994-0.172-1.337-0.517C72.492,3.026,72.32,2.604,72.32,2.104z M75.601,23.715
		c-0.12,0.048-0.298,0.101-0.535,0.161c-0.238,0.059-0.5,0.089-0.784,0.089c-1.022,0-1.535-0.428-1.535-1.284V7.382
		c0.12-0.047,0.304-0.101,0.554-0.161c0.25-0.059,0.517-0.089,0.803-0.089c0.999,0,1.498,0.44,1.498,1.32V23.715z"/>
	<path fill="#E4E9EC" d="M91.452,10.128c-0.749-0.618-1.753-0.927-3.014-0.927c-0.95,0-1.795,0.12-2.532,0.357
		c-0.737,0.238-1.367,0.511-1.889,0.82v13.337c-0.12,0.048-0.298,0.101-0.536,0.161c-0.238,0.059-0.5,0.089-0.784,0.089
		c-1.023,0-1.534-0.428-1.534-1.284v-12.16c0-0.5,0.101-0.91,0.304-1.23c0.201-0.321,0.552-0.636,1.051-0.945
		c0.618-0.38,1.438-0.725,2.46-1.034c1.023-0.309,2.177-0.464,3.459-0.464c2.163,0,3.87,0.488,5.118,1.462
		c1.249,0.975,1.873,2.508,1.873,4.6v10.805c-0.12,0.048-0.304,0.101-0.553,0.161c-0.25,0.059-0.505,0.089-0.766,0.089
		c-1.022,0-1.533-0.428-1.533-1.284v-9.628C92.576,11.721,92.201,10.747,91.452,10.128z"/>
	<path fill="#E4E9EC" d="M103.167,23.875c-0.238,0.059-0.5,0.089-0.785,0.089c-1.022,0-1.533-0.428-1.533-1.284V0.678
		c0.119-0.047,0.303-0.101,0.552-0.161c0.25-0.059,0.518-0.089,0.803-0.089c0.999,0,1.498,0.428,1.498,1.284V14.55l7.811-7.56
		c0.57,0.024,1.016,0.161,1.337,0.41s0.482,0.577,0.482,0.981c0,0.333-0.107,0.624-0.321,0.874c-0.215,0.25-0.499,0.541-0.856,0.874
		l-5.742,5.028l7.952,7.133c-0.047,0.522-0.208,0.939-0.481,1.248c-0.274,0.309-0.637,0.463-1.088,0.463
		c-0.356,0-0.683-0.089-0.981-0.268c-0.297-0.178-0.6-0.433-0.909-0.766l-7.203-7.24v7.989
		C103.582,23.763,103.403,23.815,103.167,23.875z"/>
	<g>
		<path fill="#E4E9EC" d="M15.038,9.283c-1.343,0-2.435-1.093-2.435-2.436s1.092-2.436,2.435-2.436s2.436,1.093,2.436,2.436
			S16.381,9.283,15.038,9.283z M15.038,5.402c-0.796,0-1.445,0.648-1.445,1.445c0,0.797,0.648,1.445,1.445,1.445
			c0.797,0,1.445-0.648,1.445-1.445C16.483,6.051,15.835,5.402,15.038,5.402z"/>
	</g>
</g>
</svg>
